<svg xmlns="http://www.w3.org/2000/svg" viewBox="0 0 512 512"><defs><style>.cls-1{fill:#fff;}.cls-2{fill:#421057;}.cls-2,.cls-4{fill-rule:evenodd;}.cls-3{fill:#6b2a87;}.cls-4{fill:#fefefe;}</style></defs><g id="Camada_2" data-name="Camada 2"><g id="Camada_1-2" data-name="Camada 1"><rect class="cls-1" width="512" height="512"/><g id="Camada_1-3" data-name="Camada_1"><path class="cls-2" d="M262.72,459.44c155.39-1.68,329.91-259,77.4-443.26C590.62,98.13,546.77,512,263,512l-.32-52.56Z"/><ellipse class="cls-3" cx="253.75" cy="231.36" rx="246.22" ry="231.36"/><path class="cls-4" d="M122.27,118.4h74.05c20.58.41,25.79,13.77,26.72,25l-.22,120.65c1.94,17.52,12.88,19.67,26.46,19.83l71.3-.1c-3.65,14.36-8.89,23.4-30.14,29.25-22.11,6.09-98.66,11.37-100.14-43l-.4-116.8L154,152.85,155.27,266c13.89,130,208.12,100.6,204.42-.15.71-40.69-.95-81.59-.23-122.29,4.83-19.84,18.7-25.21,32.19-25.78l.56,141c-2,58.92-53,139.8-155,128.45C175,376.11,125,331.74,122.88,257.85l-.61-139.45Z"/><path class="cls-4" d="M287.32,117.48l33,7.09L308.47,179.5c-8.62,10.55-19.29,22.3-37.79,15.39Z"/></g></g></g></svg>