<?xml version="1.0" encoding="UTF-8"?>
<!DOCTYPE svg PUBLIC "-//W3C//DTD SVG 1.1//EN" "http://www.w3.org/Graphics/SVG/1.1/DTD/svg11.dtd">
<!-- Creator: CorelDRAW 2020 (64 Bit) -->
<svg xmlns="http://www.w3.org/2000/svg" xml:space="preserve" width="97.1001mm" height="100.042mm" version="1.1" style="shape-rendering:geometricPrecision; text-rendering:geometricPrecision; image-rendering:optimizeQuality; fill-rule:evenodd; clip-rule:evenodd"
viewBox="0 0 8746.19 9011.15"
 xmlns:xlink="http://www.w3.org/1999/xlink"
 xmlns:xodm="http://www.corel.com/coreldraw/odm/2003">
 <defs>
  <style type="text/css">
   <![CDATA[
    .fil2 {fill:#FEFEFE}
    .fil0 {fill:#421057}
    .fil1 {fill:#6B2A87}
   ]]>
  </style>
 </defs>
 <g id="Camada_x0020_1">
  <metadata id="CorelCorpID_0Corel-Layer"/>
  <path class="fil0" d="M4491.43 8086.09c2734.81,-29.63 5806.32,-4557.62 1362.11,-7801.27 4408.85,1442.22 3637.1,8726.33 -1356.59,8726.33l-5.52 -925.06z"/>
  <ellipse class="fil1" cx="4333.52" cy="4071.85" rx="4333.52" ry="4071.85"/>
  <path class="fil2" d="M2019.45 2083.89l1303.33 0c362.13,7.16 453.87,242.35 470.31,440.61l-3.88 2123.42c34.04,308.35 226.56,346.16 465.64,349.06l1254.78 -1.7c-64.15,252.72 -156.42,411.8 -530.37,514.79 -389.17,107.18 -1736.46,200.13 -1762.56,-756.72l-6.93 -2055.56 -631.34 -7.61 21.78 1992.06c244.51,2287.75 3662.98,1770.62 3597.75,-2.54 12.56,-716.23 -16.58,-1436.05 -4,-2152.27 85,-349.31 329.08,-443.77 566.52,-453.82l9.82 2481.92c-34.8,1036.97 -932.76,2460.49 -2728.23,2260.69 -1094.34,-196.79 -1973.92,-977.62 -2011.87,-2278.05l-10.75 -2454.27z"/>
  <path class="fil2" d="M4924.3 2067.66l580.07 124.69 -207.82 966.8c-151.65,185.8 -339.51,392.56 -665.09,270.84l292.84 -1362.33z"/>
 </g>
</svg>
