<?xml version="1.0" encoding="UTF-8"?>
<!DOCTYPE svg PUBLIC "-//W3C//DTD SVG 1.1//EN" "http://www.w3.org/Graphics/SVG/1.1/DTD/svg11.dtd">
<!-- Creator: CorelDRAW 2020 (64 Bit) -->
<svg xmlns="http://www.w3.org/2000/svg" xml:space="preserve" width="91.4398mm" height="162.56mm" version="1.1" style="shape-rendering:geometricPrecision; text-rendering:geometricPrecision; image-rendering:optimizeQuality; fill-rule:evenodd; clip-rule:evenodd"
viewBox="0 0 9143.98 16255.98"
 xmlns:xlink="http://www.w3.org/1999/xlink"
 xmlns:xodm="http://www.corel.com/coreldraw/odm/2003">
 <defs>
  <style type="text/css">
   <![CDATA[
    .fil41 {fill:#FEFEFE}
    .fil40 {fill:#3F294D}
    .fil24 {fill:#D2D3D5;fill-rule:nonzero}
    .fil26 {fill:#B1B3B5;fill-rule:nonzero}
    .fil29 {fill:#FDC043;fill-rule:nonzero}
    .fil30 {fill:#B48C37;fill-rule:nonzero}
    .fil9 {fill:#F1F1F0;fill-rule:nonzero}
    .fil11 {fill:#F0D0A2;fill-rule:nonzero}
    .fil13 {fill:#D6BB93;fill-rule:nonzero}
    .fil12 {fill:#BCA583;fill-rule:nonzero}
    .fil14 {fill:#9B896E;fill-rule:nonzero}
    .fil15 {fill:#7B6D58;fill-rule:nonzero}
    .fil19 {fill:#BA83A6;fill-rule:nonzero}
    .fil3 {fill:#A97797;fill-rule:nonzero}
    .fil20 {fill:#926782;fill-rule:nonzero}
    .fil33 {fill:#B38E5F;fill-rule:nonzero}
    .fil34 {fill:#90744F;fill-rule:nonzero}
    .fil37 {fill:#7B6344;fill-rule:nonzero}
    .fil36 {fill:#64513A;fill-rule:nonzero}
    .fil32 {fill:#865858;fill-rule:nonzero}
    .fil8 {fill:#B7B7B8;fill-rule:nonzero}
    .fil10 {fill:#8E8F91;fill-rule:nonzero}
    .fil23 {fill:#D5845E;fill-rule:nonzero}
    .fil31 {fill:#B27151;fill-rule:nonzero}
    .fil17 {fill:#D3D0D0;fill-rule:nonzero}
    .fil21 {fill:#B1B0B0;fill-rule:nonzero}
    .fil0 {fill:#A8518A;fill-rule:nonzero}
    .fil39 {fill:#B64050;fill-rule:nonzero}
    .fil38 {fill:#7D313A;fill-rule:nonzero}
    .fil16 {fill:#332A28;fill-rule:nonzero}
    .fil25 {fill:#2F2826;fill-rule:nonzero}
    .fil2 {fill:#67676A;fill-rule:nonzero}
    .fil1 {fill:#6A3B82;fill-rule:nonzero}
    .fil27 {fill:#3F294D;fill-rule:nonzero}
    .fil5 {fill:#477496;fill-rule:nonzero}
    .fil4 {fill:#3C536F;fill-rule:nonzero}
    .fil6 {fill:#384C65;fill-rule:nonzero}
    .fil28 {fill:#33445A;fill-rule:nonzero}
    .fil7 {fill:#303E52;fill-rule:nonzero}
    .fil35 {fill:#2D3438;fill-rule:nonzero}
    .fil18 {fill:#2D8A95;fill-rule:nonzero}
    .fil22 {fill:#2C767F;fill-rule:nonzero}
   ]]>
  </style>
 </defs>
 <g id="Camada_x0020_1">
  <metadata id="CorelCorpID_0Corel-Layer"/>
  <polygon class="fil0" points="1391.8,11705.87 7663.22,11705.87 7663.22,9264.11 1391.8,9264.11 "/>
  <path class="fil1" d="M1352.67 9284.17l6349.68 0c11.05,0 20.06,-8.99 20.06,-20.06 0,-11.08 -9.01,-20.07 -20.06,-20.07l-6349.68 0c-11.08,0 -20.06,8.99 -20.06,20.07 0,11.07 8.98,20.06 20.06,20.06z"/>
  <path class="fil2" d="M5889.23 4502.03l985.66 0c11.04,0 20,-8.96 20,-20.06 0,-11.04 -8.96,-20.05 -20,-20.05l-985.66 0c-11.08,0 -20.07,9.01 -20.07,20.05 0,11.1 8.99,20.06 20.07,20.06z"/>
  <path class="fil2" d="M2653.94 4662.43l669.19 0c11.08,0 20.06,-8.96 20.06,-20.06 0,-11.04 -8.98,-20.06 -20.06,-20.06l-669.19 0c-11.08,0 -20.05,9.02 -20.05,20.06 0,11.1 8.97,20.06 20.05,20.06z"/>
  <path class="fil2" d="M1510.41 6254.09l669.16 0c11.07,0 20.06,-8.98 20.06,-20.06 0,-11.07 -8.99,-20.05 -20.06,-20.05l-669.16 0c-11.08,0 -20.06,8.98 -20.06,20.05 0,11.08 8.98,20.06 20.06,20.06z"/>
  <path class="fil2" d="M6994.13 6110.26l669.16 0c11.04,0 20.05,-8.97 20.05,-20.05 0,-11.07 -9.01,-20.06 -20.05,-20.06l-669.16 0c-11.05,0 -20.06,8.99 -20.06,20.06 0,11.08 9.01,20.05 20.06,20.05z"/>
  <path class="fil2" d="M6431.26 5820.34l669.14 0c11.05,0 20,-8.95 20,-20.05 0,-11.05 -8.95,-20.06 -20,-20.06l-669.14 0c-11.08,0 -20.07,9.01 -20.07,20.06 0,11.1 8.99,20.05 20.07,20.05z"/>
  <path class="fil2" d="M1313.61 7744.06l669.12 0c11.07,0 20.05,-9 20.05,-20.07 0,-11.08 -8.98,-20.07 -20.05,-20.07l-669.12 0c-11.08,0 -20.06,8.99 -20.06,20.07 0,11.07 8.98,20.07 20.06,20.07z"/>
  <path class="fil2" d="M4038.74 4346.16l-20.06 0c-0.01,16.1 -6.47,30.52 -17,41.04 -10.57,10.53 -24.96,16.98 -41.08,17.04 -16.1,-0.06 -30.48,-6.51 -41.06,-17.04 -10.53,-10.52 -16.99,-24.94 -17,-41.04 0.01,-16.1 6.47,-30.52 17.01,-41.1 10.57,-10.53 24.96,-16.98 41.05,-16.98 16.1,0 30.5,6.45 41.07,16.98 10.54,10.58 17,25 17.01,41.1l40.12 0c0.01,-27.04 -11.02,-51.74 -28.76,-69.42 -17.71,-17.79 -42.39,-28.77 -69.44,-28.77 -27.05,0 -51.71,10.98 -69.42,28.77 -17.73,17.68 -28.77,42.38 -28.76,69.42 -0.01,27.04 11.03,51.74 28.77,69.42 17.7,17.73 42.37,28.77 69.41,28.77 27.04,0 51.72,-11.04 69.43,-28.77 17.74,-17.68 28.78,-42.38 28.77,-69.42l-20.06 0z"/>
  <path class="fil2" d="M1726.3 7035.1l-20.05 0c-0.02,16.11 -6.47,30.45 -17.01,41.05 -10.57,10.54 -24.97,16.98 -41.09,16.98 -16.12,0 -30.5,-6.44 -41.06,-16.98 -10.54,-10.55 -16.99,-24.94 -16.99,-41.05 0,-16.11 6.46,-30.5 16.99,-41.08 10.56,-10.54 24.95,-17.01 41.06,-17.01 16.12,0 30.51,6.47 41.08,17.01 10.55,10.58 17.01,24.97 17.02,41.08l40.11 0c0.01,-27.04 -11.02,-51.73 -28.76,-69.44 -17.71,-17.74 -42.39,-28.79 -69.45,-28.77 -27.07,-0.02 -51.73,11.03 -69.43,28.78 -17.74,17.71 -28.75,42.39 -28.74,69.43 -0.01,27.03 11,51.71 28.74,69.41 17.71,17.74 42.38,28.75 69.43,28.75 27.05,0 51.73,-11.01 69.44,-28.75 17.75,-17.7 28.78,-42.38 28.77,-69.41l-20.06 0z"/>
  <path class="fil2" d="M2402.96 5404.09l-20.06 0c-0.01,16.09 -6.46,30.45 -16.99,41.03 -10.57,10.53 -24.95,16.98 -41.09,16.98 -16.12,0 -30.51,-6.45 -41.07,-16.98 -10.52,-10.58 -16.98,-24.94 -16.99,-41.03 0.01,-16.11 6.47,-30.53 16.99,-41.11 10.58,-10.52 24.95,-16.98 41.07,-17.04 16.13,0.06 30.52,6.52 41.08,17.04 10.54,10.58 16.99,25 17,41.11l40.12 0c0.01,-27.1 -11.01,-51.75 -28.74,-69.49 -17.7,-17.73 -42.39,-28.77 -69.46,-28.77 -27.06,0 -51.74,11.04 -69.44,28.77 -17.73,17.74 -28.75,42.39 -28.73,69.49 -0.02,27.03 11,51.67 28.74,69.41 17.7,17.73 42.37,28.72 69.43,28.72 27.06,0 51.75,-10.99 69.46,-28.72 17.73,-17.74 28.75,-42.38 28.74,-69.41l-20.06 0z"/>
  <path class="fil2" d="M7741.42 6564l-20.06 0c0,16.11 -6.45,30.51 -16.97,41.09 -10.64,10.54 -25,17.01 -41.1,17.01 -16.11,0 -30.53,-6.47 -41.11,-17.01 -10.52,-10.58 -16.98,-24.98 -17.03,-41.09 0.05,-16.08 6.51,-30.47 17.03,-41.04 10.58,-10.55 25,-17 41.11,-17.01 16.1,0.01 30.52,6.46 41.1,17.01 10.52,10.57 16.97,24.96 16.97,41.04l40.17 0c0,-27.04 -11.04,-51.71 -28.83,-69.41 -17.67,-17.73 -42.32,-28.76 -69.41,-28.76 -27.04,0 -51.75,11.03 -69.48,28.76 -17.73,17.7 -28.72,42.37 -28.72,69.41 0,27.06 10.99,51.75 28.72,69.45 17.73,17.74 42.38,28.79 69.48,28.77 27.09,0.02 51.74,-11.02 69.41,-28.77 17.79,-17.7 28.83,-42.39 28.83,-69.45l-20.11 0z"/>
  <path class="fil2" d="M2008.09 8383.39l-20.06 0c-0.01,16.08 -6.47,30.47 -17.01,41.02 -10.57,10.55 -24.97,17.02 -41.08,17.02 -16.12,0 -30.52,-6.47 -41.08,-17.02 -10.55,-10.55 -17.01,-24.94 -17.02,-41.02 0.01,-16.09 6.47,-30.49 17.02,-41.07 10.56,-10.55 24.96,-17.02 41.08,-17.02 16.11,0 30.51,6.47 41.08,17.02 10.54,10.58 17,24.98 17.01,41.07l40.11 0c0.01,-27.07 -11.02,-51.73 -28.76,-69.43 -17.71,-17.75 -42.39,-28.79 -69.44,-28.76 -27.06,-0.03 -51.74,11.01 -69.45,28.76 -17.74,17.7 -28.77,42.36 -28.76,69.43 -0.01,27.04 11.02,51.72 28.76,69.42 17.71,17.7 42.39,28.74 69.45,28.74 27.06,0 51.73,-11.04 69.44,-28.74 17.73,-17.7 28.77,-42.38 28.76,-69.42l-20.05 0z"/>
  <path class="fil2" d="M6886.23 7451.18l-20.06 0c0,16.1 -6.46,30.5 -16.98,41.05 -10.58,10.54 -24.94,17.01 -41.05,17.01 -16.16,0 -30.58,-6.47 -41.15,-17.01 -10.53,-10.55 -16.98,-24.95 -16.98,-41.05 0,-16.11 6.45,-30.49 16.98,-41.09 10.57,-10.49 24.99,-16.97 41.15,-16.97 16.11,0 30.47,6.48 41.05,16.97 10.52,10.6 16.98,24.98 16.98,41.09l40.17 0c0,-27.03 -11.05,-51.7 -28.84,-69.45 -17.67,-17.7 -42.32,-28.74 -69.36,-28.74 -27.09,0 -51.74,11.04 -69.53,28.74 -17.73,17.71 -28.71,42.42 -28.71,69.45 0,27.07 11.04,51.74 28.77,69.45 17.73,17.7 42.38,28.75 69.47,28.75 27.04,0 51.69,-11.05 69.36,-28.79 17.79,-17.67 28.84,-42.34 28.84,-69.41l-20.11 0z"/>
  <path class="fil2" d="M2358.77 7113.19l-20.06 0c0,16.14 -6.46,30.5 -17.01,41.08 -10.56,10.52 -24.96,16.99 -41.07,16.99 -16.13,0 -30.53,-6.47 -41.09,-16.99 -10.54,-10.58 -17,-24.94 -17.01,-41.08 0,-16.07 6.47,-30.46 17.01,-41.04 10.58,-10.55 24.98,-17.03 41.09,-17.03 16.1,0 30.5,6.48 41.07,17.03 10.55,10.58 17.01,24.97 17.01,41.04l40.11 0c0.02,-27.03 -11.02,-51.7 -28.76,-69.41 -17.69,-17.75 -42.37,-28.78 -69.43,-28.74 -27.07,-0.04 -51.74,10.99 -69.45,28.74 -17.74,17.71 -28.77,42.38 -28.76,69.41 -0.01,27.08 11.02,51.75 28.76,69.45 17.72,17.75 42.4,28.75 69.45,28.75 27.04,0 51.72,-11 69.43,-28.75 17.74,-17.7 28.78,-42.37 28.76,-69.45l-20.05 0z"/>
  <path class="fil2" d="M6676.99 4830.45l2.62 141.15c0.23,11.05 9.36,19.88 20.4,19.65 11.1,-0.18 19.94,-9.36 19.71,-20.4l-2.62 -141.17c-0.23,-11.04 -9.36,-19.88 -20.4,-19.64 -11.11,0.17 -19.89,9.36 -19.71,20.41z"/>
  <path class="fil2" d="M6681.99 5101.53l2.62 141.05c0.23,11.1 9.36,19.88 20.46,19.7 11.05,-0.23 19.88,-9.35 19.65,-20.46l-2.61 -141.04c-0.18,-11.1 -9.37,-19.88 -20.42,-19.71 -11.04,0.24 -19.88,9.36 -19.7,20.46z"/>
  <path class="fil2" d="M6906.51 5012.24l-141.09 2.67c-11.05,0.18 -19.83,9.36 -19.66,20.4 0.24,11.12 9.36,19.89 20.41,19.72l141.1 -2.67c11.11,-0.18 19.88,-9.37 19.71,-20.41 -0.23,-11.1 -9.42,-19.89 -20.47,-19.71z"/>
  <path class="fil2" d="M6635.48 5017.3l-141.09 2.67c-11.09,0.17 -19.88,9.3 -19.69,20.41 0.23,11.04 9.37,19.88 20.45,19.65l141.08 -2.62c11.05,-0.23 19.89,-9.36 19.66,-20.46 -0.18,-11.05 -9.31,-19.89 -20.41,-19.65z"/>
  <path class="fil2" d="M6829.43 4873.81l-97.97 101.69c-7.67,7.96 -7.38,20.63 0.52,28.31 8.03,7.73 20.7,7.44 28.38,-0.53l97.96 -101.62c7.67,-8.03 7.44,-20.7 -0.52,-28.37 -8.03,-7.67 -20.7,-7.44 -28.37,0.52z"/>
  <path class="fil2" d="M6641.35 5069.04l-97.96 101.62c-7.68,7.97 -7.44,20.64 0.46,28.32 8.03,7.73 20.7,7.49 28.37,-0.47l97.97 -101.63c7.73,-7.96 7.49,-20.69 -0.47,-28.36 -8.02,-7.68 -20.7,-7.44 -28.37,0.52z"/>
  <path class="fil2" d="M6863.2 5164.73l-101.62 -97.96c-7.97,-7.67 -20.64,-7.44 -28.37,0.52 -7.68,8.03 -7.44,20.7 0.52,28.38l101.63 97.95c7.96,7.67 20.63,7.45 28.36,-0.52 7.68,-7.96 7.45,-20.69 -0.52,-28.37z"/>
  <path class="fil2" d="M6667.98 4976.66l-101.62 -97.96c-8.03,-7.67 -20.7,-7.44 -28.38,0.52 -7.67,7.96 -7.44,20.64 0.53,28.37l101.56 97.91c8.02,7.73 20.7,7.49 28.37,-0.53 7.73,-7.96 7.5,-20.64 -0.46,-28.31z"/>
  <path class="fil2" d="M2635.86 8176.5l2.64 141.1c0.2,11.09 9.35,19.88 20.43,19.69 11.06,-0.18 19.88,-9.36 19.67,-20.45l-2.63 -141.11c-0.21,-11.07 -9.36,-19.86 -20.43,-19.67 -11.07,0.22 -19.88,9.36 -19.68,20.44z"/>
  <path class="fil2" d="M2640.89 8447.52l2.62 141.1c0.21,11.08 9.35,19.88 20.43,19.69 11.07,-0.2 19.88,-9.37 19.68,-20.45l-2.62 -141.06c-0.21,-11.09 -9.35,-19.92 -20.43,-19.69 -11.07,0.18 -19.88,9.33 -19.68,20.41z"/>
  <path class="fil2" d="M2865.39 8358.3l-141.06 2.64c-11.08,0.22 -19.89,9.36 -19.68,20.45 0.21,11.07 9.36,19.87 20.43,19.67l141.07 -2.66c11.08,-0.19 19.89,-9.37 19.68,-20.45 -0.21,-11.04 -9.35,-19.87 -20.44,-19.65z"/>
  <path class="fil2" d="M2594.36 8363.34l-141.1 2.62c-11.08,0.19 -19.89,9.32 -19.69,20.41 0.21,11.08 9.36,19.91 20.44,19.68l141.09 -2.62c11.08,-0.19 19.89,-9.34 19.68,-20.41 -0.2,-11.08 -9.35,-19.88 -20.42,-19.68z"/>
  <path class="fil2" d="M2788.31 8219.87l-97.95 101.62c-7.69,7.95 -7.45,20.68 0.53,28.36 7.98,7.66 20.67,7.43 28.36,-0.53l97.93 -101.62c7.69,-7.99 7.46,-20.68 -0.52,-28.36 -7.97,-7.7 -20.68,-7.47 -28.35,0.53z"/>
  <path class="fil2" d="M2600.24 8415.04l-97.97 101.62c-7.69,7.95 -7.46,20.68 0.52,28.37 7.97,7.69 20.67,7.42 28.35,-0.53l97.97 -101.59c7.69,-8 7.46,-20.68 -0.51,-28.36 -7.98,-7.7 -20.67,-7.46 -28.36,0.49z"/>
  <path class="fil2" d="M2822.06 8510.75l-101.61 -97.95c-7.98,-7.65 -20.67,-7.43 -28.36,0.52 -7.69,8.01 -7.45,20.68 0.52,28.37l101.61 97.93c7.98,7.68 20.68,7.47 28.36,-0.49 7.69,-8 7.46,-20.68 -0.52,-28.38z"/>
  <path class="fil2" d="M2626.83 8322.67l-101.62 -97.93c-7.97,-7.69 -20.67,-7.46 -28.36,0.5 -7.69,7.99 -7.45,20.67 0.53,28.36l101.6 97.93c7.98,7.69 20.68,7.47 28.37,-0.5 7.68,-7.99 7.45,-20.67 -0.52,-28.36z"/>
  <path class="fil2" d="M1702.44 5404.43l2.63 141.1c0.21,11.1 9.35,19.88 20.43,19.7 11.07,-0.22 19.88,-9.35 19.68,-20.45l-2.63 -141.1c-0.21,-11.05 -9.35,-19.88 -20.43,-19.66 -11.07,0.18 -19.88,9.3 -19.68,20.41z"/>
  <path class="fil2" d="M1707.45 5675.41l2.63 141.16c0.22,11.04 9.36,19.88 20.44,19.64 11.07,-0.17 19.88,-9.3 19.67,-20.4l-2.63 -141.16c-0.21,-11.05 -9.35,-19.89 -20.43,-19.65 -11.07,0.24 -19.88,9.36 -19.68,20.41z"/>
  <path class="fil2" d="M1932.01 5586.22l-141.1 2.62c-11.07,0.23 -19.88,9.37 -19.68,20.41 0.21,11.1 9.35,19.88 20.42,19.71l141.1 -2.62c11.08,-0.17 19.89,-9.36 19.69,-20.41 -0.21,-11.1 -9.36,-19.88 -20.43,-19.71z"/>
  <path class="fil2" d="M1660.98 5591.28l-141.15 2.62c-11.07,0.23 -19.88,9.36 -19.67,20.41 0.2,11.1 9.35,19.88 20.42,19.7l141.14 -2.61c11.08,-0.23 19.89,-9.36 19.68,-20.47 -0.2,-11.05 -9.34,-19.88 -20.42,-19.65z"/>
  <path class="fil2" d="M1854.88 5447.74l-97.94 101.68c-7.68,7.97 -7.45,20.65 0.52,28.32 7.98,7.73 20.68,7.44 28.36,-0.52l97.94 -101.63c7.68,-7.97 7.46,-20.63 -0.52,-28.37 -7.98,-7.67 -20.67,-7.44 -28.36,0.52z"/>
  <path class="fil2" d="M1666.81 5642.97l-97.94 101.68c-7.68,7.96 -7.45,20.63 0.52,28.31 7.98,7.73 20.68,7.45 28.37,-0.53l97.94 -101.61c7.69,-8.03 7.45,-20.7 -0.53,-28.37 -7.98,-7.68 -20.67,-7.45 -28.36,0.52z"/>
  <path class="fil2" d="M1888.64 5738.72l-101.61 -97.96c-7.98,-7.68 -20.68,-7.44 -28.36,0.52 -7.69,7.96 -7.46,20.7 0.52,28.37l101.61 97.91c7.98,7.73 20.67,7.49 28.36,-0.52 7.69,-7.97 7.45,-20.65 -0.52,-28.32z"/>
  <path class="fil2" d="M1693.4 5550.58l-101.61 -97.95c-7.98,-7.68 -20.67,-7.45 -28.36,0.52 -7.68,7.97 -7.45,20.7 0.52,28.37l101.61 97.96c7.98,7.67 20.68,7.44 28.36,-0.52 7.69,-7.97 7.46,-20.7 -0.52,-28.38z"/>
  <path class="fil2" d="M7283.13 7852.83l2.61 141.11c0.24,11.08 9.36,19.87 20.41,19.68 11.1,-0.23 19.88,-9.37 19.7,-20.45l-2.61 -141.1c-0.23,-11.08 -9.36,-19.87 -20.46,-19.69 -11.05,0.23 -19.89,9.37 -19.65,20.45z"/>
  <path class="fil2" d="M7288.13 8123.84l2.61 141.11c0.18,11.08 9.36,19.88 20.41,19.69 11.1,-0.24 19.94,-9.37 19.71,-20.46l-2.62 -141.1c-0.23,-11.04 -9.36,-19.87 -20.41,-19.65 -11.1,0.19 -19.94,9.34 -19.7,20.41z"/>
  <path class="fil2" d="M7512.65 8034.63l-141.04 2.64c-11.11,0.18 -19.94,9.32 -19.71,20.4 0.18,11.08 9.3,19.87 20.41,19.68l141.04 -2.62c11.1,-0.19 19.94,-9.34 19.71,-20.41 -0.18,-11.08 -9.31,-19.87 -20.41,-19.69z"/>
  <path class="fil2" d="M7241.62 8039.7l-141.1 2.59c-11.11,0.23 -19.88,9.37 -19.71,20.45 0.23,11.07 9.36,19.87 20.46,19.69l141.1 -2.64c11.11,-0.19 19.89,-9.32 19.71,-20.41 -0.23,-11.07 -9.36,-19.91 -20.46,-19.68z"/>
  <path class="fil2" d="M7435.56 7896.2l-97.96 101.62c-7.67,7.95 -7.44,20.64 0.52,28.32 7.97,7.7 20.7,7.47 28.37,-0.49l97.91 -101.62c7.73,-8 7.5,-20.68 -0.47,-28.36 -8.02,-7.7 -20.7,-7.48 -28.37,0.53z"/>
  <path class="fil2" d="M7247.49 8091.37l-97.96 101.62c-7.68,7.99 -7.45,20.67 0.52,28.36 7.96,7.7 20.7,7.47 28.37,-0.49l97.96 -101.66c7.67,-7.96 7.44,-20.67 -0.58,-28.33 -7.91,-7.69 -20.64,-7.45 -28.31,0.5z"/>
  <path class="fil2" d="M7469.28 8187.09l-101.56 -97.93c-8.03,-7.65 -20.7,-7.43 -28.38,0.53 -7.67,8 -7.44,20.68 0.53,28.37l101.56 97.93c8.03,7.65 20.7,7.42 28.37,-0.53 7.74,-8 7.5,-20.68 -0.52,-28.37z"/>
  <path class="fil2" d="M7274.11 7998.99l-101.68 -97.92c-7.96,-7.7 -20.64,-7.46 -28.37,0.53 -7.67,7.97 -7.44,20.68 0.58,28.32l101.62 97.98c7.97,7.68 20.7,7.42 28.38,-0.53 7.67,-8.01 7.44,-20.68 -0.53,-28.38z"/>
  <path class="fil3" d="M4757.77 11290.7c-719.38,0 -1302.52,-115.98 -1302.52,-258.99 0,-28.93 23.86,-56.72 67.85,-82.69l-27.37 96.14 408.89 0 29.49 -42.27 24.85 41.12 -0.32 1.15 525.19 0 19.61 -13.48 0 0.03 13.16 -9.06 28.86 -19.76 -2.32 42.27 459.14 0 0 0c0,0 -1.22,-7.43 -5.75,-20.14l-118.91 -417.57 -1053.98 0c-9.77,-45.99 -49.3,-51.24 -66.86,-51.24 -5.2,0 -8.47,0.46 -8.47,0.46l-41.81 11.22c1.07,-1.33 2.72,-2.77 2.02,-3.62 -1.99,-2.47 -4.43,-4.68 -7.1,-6.43 -0.03,-0.04 -0.07,-0.04 -0.11,-0.04 -0.61,0 -2.49,1.75 -4.37,3.5 -1.88,1.75 -3.76,3.51 -4.39,3.51 -0.04,0 -0.07,0 -0.1,0 -1.05,-0.54 4.03,-9.63 2.95,-10.09 -3.57,-1.41 -7.5,-2.17 -11.64,-2.17l0 0 -29.26 -8.15 0 -189.3c89.25,-2.18 180.77,-3.32 274.09,-3.32 45.37,0 90.16,0.34 134.61,0.88 90.4,-71.85 285.19,-128.58 529.67,-153.97l4.03 53.11c0,0 3.7,4.95 10.43,11.57l-10.43 0 -334.92 71.16 0 80.04 501.34 0 0 -149.98c0.96,-0.77 1.49,-1.22 1.49,-1.22l11.3 -77.3c34.54,-1.2 69.68,-1.86 105.32,-1.86 482.25,0 873.24,115.94 873.24,258.98 0,50.19 -48.36,97.06 -131.74,136.73 7.92,10.13 12.46,20.41 12.46,30.81 0,67.99 -172.79,129.79 -455.03,176.01 511.87,34.88 879.97,131.33 879.97,244.97 0,143.01 -583.22,258.99 -1302.56,258.99zm371.83 -1027.33l-84.49 71.16 0 80.04 289.1 0 0 -80.04 -88.1 -71.16 -116.51 0zm-1582.06 599.86c-759.14,-26.26 -1325.69,-129.33 -1325.69,-252.5 0,-123.18 566.66,-226.24 1326.06,-252.48l0 312.09 27.27 0c1.35,1.69 2.87,3.2 4.54,4.55 0.17,0.14 0.42,0.22 0.73,0.22l-1.95 4.41c-6.23,5.6 -10.14,13.78 -10.14,22.85l0 0c0,9.68 4.43,18.24 11.36,23.92 0.19,0.14 0.49,0.18 0.87,0.18 1.16,0 3.05,-0.56 4.92,-1.17 0.48,-0.16 0.96,-0.34 1.44,-0.46l-13.97 49c0.01,0 0.01,0 0.02,0l-25.46 89.39z"/>
  <path class="fil4" d="M3496.78 10652.95c0,32.67 -135.15,59.17 -301.86,59.17 -166.72,0 -301.9,-26.5 -301.9,-59.17 0,0 63.14,-361.44 64.84,-368.49 41.28,-17.77 148.72,-20.21 237.57,-20.21 115.69,0 216.98,0.3 239.3,27.26 0,0 62.05,357.37 62.05,361.44z"/>
  <path class="fil5" d="M2946.84 10424.51l-28.24 183.48c0,48.31 122.21,72.33 273.03,72.33 0,0 -47.75,-323.89 -244.79,-255.81z"/>
  <path class="fil6" d="M3449.82 10378.48l-15.09 -86.97c-22.32,-26.96 -123.61,-27.26 -239.3,-27.26 -88.85,0 -196.29,2.44 -237.57,20.21 -0.48,2.02 -2.83,-13.02 3.32,30.39 0,0 373.94,121.22 488.64,63.63z"/>
  <path class="fil4" d="M3466.15 10275.94c0,32.66 -121.23,59.16 -270.84,59.16 -149.51,0 -270.76,-26.5 -270.76,-59.16 0,0 0,-38.04 1.87,-45.08 46.75,-17.82 168.38,-20.26 268.89,-20.26 130.91,0 245.61,0.3 270.84,27.3 0,0 0,33.97 0,38.04z"/>
  <path class="fil5" d="M3466.15 10232.57c0,35.64 -121.23,64.5 -270.84,64.5 -149.51,0 -270.76,-28.86 -270.76,-64.5 0,-35.64 121.25,-64.54 270.76,-64.54 149.61,0 270.84,28.9 270.84,64.54z"/>
  <path class="fil7" d="M3436.85 10231.5c0,29.12 -108.12,52.77 -241.54,52.77 -133.35,0 -241.51,-23.65 -241.51,-52.77 0,-29.16 108.16,-52.77 241.51,-52.77 133.42,0 241.54,23.61 241.54,52.77z"/>
  <path class="fil7" d="M3601.18 8769.48c-14.06,0 -25.46,-11.39 -25.46,-25.44 0,-14.09 11.4,-25.47 25.46,-25.47 14.07,0 25.46,11.38 25.46,25.47 0,14.05 -11.39,25.44 -25.46,25.44zm0 -65.95c-22.37,0 -40.5,18.13 -40.5,40.51 0,22.39 18.13,40.52 40.5,40.52 22.37,0 40.54,-18.13 40.54,-40.52 0,-22.38 -18.17,-40.51 -40.54,-40.51z"/>
  <polygon class="fil8" points="3568.59,10293.22 3633.78,10293.22 3633.78,8770.42 3568.59,8770.42 "/>
  <polygon class="fil9" points="3614.62,10293.22 3633.78,10293.22 3633.78,8770.42 3614.62,8770.42 "/>
  <polygon class="fil10" points="3568.59,10293.22 3588.61,10293.22 3588.61,8770.42 3568.59,8770.42 "/>
  <polygon class="fil4" points="3554.88,8798.65 3647.48,8798.65 3647.48,8770.43 3554.88,8770.43 "/>
  <polygon class="fil4" points="3547.91,10670.34 3654.5,10670.34 3654.5,10172.86 3547.91,10172.86 "/>
  <polygon class="fil7" points="3654.5,10670.34 3547.91,10670.34 3654.5,10172.87 "/>
  <path class="fil11" d="M3737.86 10618.53l-102.52 19.88 179.88 47.02c-3.97,-77.3 -77.36,-66.9 -77.36,-66.9z"/>
  <path class="fil12" d="M3749.76 10644.53l-66.82 4.23 127.5 36.67c-3.09,-47.22 -60.68,-40.9 -60.68,-40.9z"/>
  <path class="fil12" d="M3707.1 10638.34c-6.78,-0.54 54.19,-9.95 54.19,-9.95 0,0 -36.64,11.35 -54.19,9.95z"/>
  <path class="fil13" d="M3719.05 10638.41l-109.09 2.88 152.1 74.48c-2.74,-77.29 -43.01,-77.36 -43.01,-77.36z"/>
  <path class="fil14" d="M3716.86 10674.89l-77.68 -29.98 119.59 70.86c-2.15,-47.21 -41.91,-40.88 -41.91,-40.88z"/>
  <path class="fil14" d="M3639.18 10641.29c12.61,-3.42 94.13,18.32 94.13,18.32 0,0 -77.52,-12.68 -94.13,-18.32z"/>
  <path class="fil14" d="M3680.35 10671.6l-81.9 -22.84 62.54 77.53c0,0 39.02,-32.15 19.36,-54.69z"/>
  <path class="fil15" d="M3711.1 10702.37c0,16.98 -13.75,30.76 -30.75,30.76 -2.74,0 -5.4,-0.38 -7.96,-1.02 -2.27,-0.61 2.01,-6.81 -0.07,-7.92 -0.82,-0.46 -3.17,0.34 -5.55,1.11 -2.5,0.79 -5.01,1.59 -5.78,0.99 -6.97,-5.68 -11.38,-14.24 -11.38,-23.92 0,-9.37 4.22,-17.85 10.84,-23.49 1.14,-0.92 8.84,2.17 8.84,2.17l-1.31 -6.86c3.76,-1.66 7.95,-2.59 12.37,-2.59 3.93,0 7.67,0.73 11.16,2.1 1.07,0.43 -3.83,9.14 -2.85,9.67 0.46,0.23 2.39,-1.56 4.31,-3.32 1.94,-1.82 3.89,-3.61 4.3,-3.34 2.59,1.71 4.86,3.77 6.82,6.13 1.05,1.29 -3.41,3.96 -2.59,5.44 1.03,1.76 7.38,2.32 8,4.31 1.05,3.08 1.6,6.36 1.6,9.78z"/>
  <path class="fil14" d="M3666.63 10688.66c7.58,-7.53 19.87,-7.53 27.39,0 1.22,1.25 2.27,2.59 3.09,4 0.75,1.33 -3.91,2.17 -3.48,3.54 0.31,1.22 5.83,2.94 5.95,4.15 0.63,5.6 -1.24,11.42 -5.56,15.73 -4.19,4.19 -9.84,6.02 -15.27,5.59 -0.9,-0.07 -2.98,-4.91 -2.98,-4.91l-2.47 3.62c-2.43,-0.87 -4.65,-2.36 -6.67,-4.3 -1.72,-1.79 -3.09,-3.78 -4.02,-5.9 -0.27,-0.65 5.8,-2.36 5.55,-3.05 -0.18,-0.61 -6.66,-0.23 -6.81,-0.88 -0.36,-1.9 -0.47,-3.84 -0.27,-5.78 0.08,-1.03 3.29,-0.2 3.56,-1.25 0.36,-1.23 -2.2,-4.28 -1.65,-5.49 0.95,-1.83 2.15,-3.51 3.64,-5.07z"/>
  <path class="fil14" d="M3616.02 10676.71l-23.88 -27.95 -23.78 53.61c0,0 67.34,-3.12 47.66,-25.66z"/>
  <path class="fil15" d="M3629.83 10702.37c0,16.98 -13.76,30.76 -30.77,30.76 -2.73,0 -5.41,-0.38 -7.91,-1.02 -2.3,-0.61 1.97,-6.81 -0.07,-7.92 -0.84,-0.46 -3.2,0.34 -5.57,1.11 -2.49,0.79 -5.01,1.59 -5.79,0.99 -6.93,-5.68 -11.36,-14.24 -11.36,-23.92 0,-9.37 4.22,-17.85 10.85,-23.49 1.13,-0.92 8.81,2.17 8.81,2.17l-1.32 -6.86c3.78,-1.66 7.98,-2.59 12.36,-2.59 3.96,0 7.73,0.73 11.17,2.1 1.06,0.43 -3.85,9.14 -2.82,9.67 0.46,0.23 2.37,-1.56 4.3,-3.32 1.94,-1.82 3.88,-3.61 4.31,-3.34 2.59,1.71 4.87,3.77 6.78,6.13 1.11,1.29 -3.4,3.96 -2.58,5.44 1.05,1.76 7.35,2.32 8.02,4.31 1.03,3.08 1.59,6.36 1.59,9.78z"/>
  <path class="fil14" d="M3585.4 10688.66c7.56,-7.53 19.81,-7.53 27.38,0 1.2,1.25 2.23,2.59 3.04,4 0.76,1.33 -3.91,2.17 -3.47,3.54 0.35,1.22 5.87,2.94 5.99,4.15 0.58,5.6 -1.29,11.42 -5.56,15.73 -4.2,4.19 -9.83,6.02 -15.27,5.59 -0.95,-0.07 -2.99,-4.91 -2.99,-4.91l-2.47 3.62c-2.43,-0.87 -4.71,-2.36 -6.65,-4.3 -1.78,-1.79 -3.14,-3.78 -4.05,-5.9 -0.26,-0.65 5.77,-2.36 5.57,-3.05 -0.22,-0.61 -6.66,-0.23 -6.82,-0.88 -0.38,-1.9 -0.5,-3.84 -0.27,-5.78 0.08,-1.03 3.29,-0.2 3.56,-1.25 0.31,-1.23 -2.23,-4.28 -1.64,-5.49 0.9,-1.83 2.12,-3.51 3.65,-5.07z"/>
  <path class="fil11" d="M3460.32 10618.45l98.69 19.96 -176.06 46.98c3.96,-77.29 77.37,-66.94 77.37,-66.94z"/>
  <path class="fil12" d="M3448.38 10644.5l63.05 4.26 -123.7 36.63c3.09,-47.21 60.65,-40.89 60.65,-40.89z"/>
  <path class="fil12" d="M3501.49 10648.72c6.8,-0.49 -64.64,-20.37 -64.64,-20.37 0,0 47.13,21.74 64.64,20.37z"/>
  <path class="fil13" d="M3489.57 10648.8l94.81 -7.51 -148.28 74.37c2.71,-77.25 53.47,-66.86 53.47,-66.86z"/>
  <path class="fil14" d="M3481.32 10674.8l73.88 -29.89 -115.81 70.75c2.13,-47.21 41.93,-40.86 41.93,-40.86z"/>
  <path class="fil14" d="M3555.2 10641.29c-12.62,-3.42 -90.35,18.29 -90.35,18.29 0,0 73.7,-12.65 90.35,-18.29z"/>
  <path class="fil14" d="M3522.29 10671.6l73.61 -22.84 -54.26 77.53c0,0 -38.97,-32.15 -19.35,-54.69z"/>
  <path class="fil15" d="M3491.58 10702.37c0,16.98 13.75,30.76 30.71,30.76 2.74,0 5.4,-0.38 7.95,-1.02 2.32,-0.61 -1.95,-6.81 0.09,-7.92 1.71,-0.92 9.82,3.27 11.31,2.1 6.94,-5.68 11.44,-14.24 11.44,-23.92 0,-9.37 -4.24,-17.85 -10.93,-23.49 -1.1,-0.92 -8.82,2.17 -8.82,2.17l1.38 -6.86c-3.8,-1.66 -8,-2.59 -12.42,-2.59 -3.92,0 -7.69,0.73 -11.17,2.1 -1.01,0.43 3.84,9.14 2.86,9.67 -0.94,0.46 -7.75,-7.24 -8.61,-6.66 -2.59,1.71 -4.89,3.77 -6.81,6.13 -1.08,1.29 3.43,3.96 2.57,5.44 -1.01,1.76 -7.31,2.32 -7.99,4.31 -1.01,3.08 -1.56,6.36 -1.56,9.78z"/>
  <path class="fil14" d="M3535.99 10688.66c-7.59,-7.53 -19.81,-7.53 -27.38,0 -1.2,1.25 -2.23,2.59 -3.09,4 -0.7,1.33 3.92,2.17 3.49,3.54 -0.35,1.22 -5.8,2.94 -5.96,4.15 -0.58,5.6 1.29,11.42 5.56,15.73 4.19,4.19 9.8,6.02 15.29,5.59 0.94,-0.07 3.01,-4.91 3.01,-4.91l2.43 3.62c2.43,-0.87 4.71,-2.36 6.65,-4.3 1.77,-1.79 3.11,-3.78 4.04,-5.9 0.27,-0.65 -5.79,-2.36 -5.55,-3.05 0.19,-0.61 6.66,-0.23 6.77,-0.88 0.39,-1.9 0.51,-3.84 0.31,-5.78 -0.09,-1.03 -3.29,-0.2 -3.56,-1.25 -0.31,-1.23 2.23,-4.28 1.61,-5.49 -0.91,-1.83 -2.12,-3.51 -3.62,-5.07z"/>
  <path class="fil11" d="M3748.31 10556.67l-112.97 30.37 190.35 36.59c-3.96,-77.29 -77.38,-66.96 -77.38,-66.96z"/>
  <path class="fil12" d="M3760.23 10582.74l-77.29 14.66 137.92 26.23c-3.06,-47.21 -60.63,-40.89 -60.63,-40.89z"/>
  <path class="fil12" d="M3707.1 10586.97c-6.78,-0.54 64.64,-20.37 64.64,-20.37 0,0 -47.09,21.77 -64.64,20.37z"/>
  <path class="fil13" d="M3719.05 10587.01l-109.09 2.92 162.57 64.01c-2.7,-77.29 -53.48,-66.93 -53.48,-66.93z"/>
  <path class="fil14" d="M3727.27 10613.09l-88.09 -19.58 130.05 60.43c-2.16,-47.21 -41.96,-40.85 -41.96,-40.85z"/>
  <path class="fil14" d="M3639.18 10589.93c12.61,-3.42 104.58,7.89 104.58,7.89 0,0 -87.97,-2.24 -104.58,-7.89z"/>
  <path class="fil14" d="M3699.7 10620.24l-101.25 -22.84 81.9 77.49c0,0 39.01,-32.07 19.35,-54.65z"/>
  <path class="fil15" d="M3730.41 10651.01c0,16.98 -13.74,30.73 -30.71,30.73 -2.74,0 -5.4,-0.34 -7.92,-1.03 -2.35,-0.66 1.97,-6.78 -0.11,-7.88 -0.84,-0.43 -3.16,0.34 -5.5,1.1 -2.51,0.8 -5.03,1.6 -5.82,0.96 -6.93,-5.6 -11.44,-14.21 -11.44,-23.88 0,-9.41 4.27,-17.85 10.93,-23.49 1.13,-0.92 8.82,2.16 8.82,2.16l-1.34 -6.85c3.8,-1.64 7.96,-2.59 12.38,-2.59 3.93,0 7.69,0.77 11.17,2.09 1.01,0.43 -3.84,9.15 -2.86,9.68 0.47,0.23 2.39,-1.57 4.31,-3.36 1.95,-1.82 3.89,-3.6 4.35,-3.34 2.54,1.71 4.84,3.84 6.81,6.17 1.01,1.25 -3.48,3.95 -2.62,5.44 1.02,1.79 7.32,2.33 7.99,4.27 1.06,3.12 1.56,6.39 1.56,9.82z"/>
  <path class="fil14" d="M3686.03 10637.31c7.55,-7.54 19.77,-7.54 27.33,0 1.27,1.21 2.25,2.58 3.11,3.98 0.75,1.3 -3.92,2.18 -3.49,3.55 0.35,1.18 5.84,2.93 5.94,4.12 0.6,5.63 -1.24,11.45 -5.56,15.76 -4.17,4.15 -9.78,6.02 -15.27,5.55 -0.94,-0.03 -2.97,-4.87 -2.97,-4.87l-2.42 3.66c-2.43,-0.95 -4.75,-2.4 -6.67,-4.34 -1.75,-1.75 -3.09,-3.78 -4.08,-5.91 -0.26,-0.69 5.8,-2.35 5.56,-3.05 -0.14,-0.63 -6.65,-0.22 -6.78,-0.9 -0.38,-1.87 -0.46,-3.82 -0.31,-5.76 0.12,-1.06 3.31,-0.22 3.62,-1.25 0.31,-1.22 -2.28,-4.31 -1.65,-5.48 0.9,-1.84 2.11,-3.54 3.64,-5.06z"/>
  <path class="fil14" d="M3616.02 10625.31l-23.88 -27.91 -23.78 53.61c0,0 67.34,-3.09 47.66,-25.7z"/>
  <path class="fil15" d="M3629.83 10651.01c0,16.98 -13.76,30.73 -30.77,30.73 -2.73,0 -5.41,-0.34 -7.91,-1.03 -2.3,-0.66 1.97,-6.78 -0.07,-7.88 -0.83,-0.43 -3.17,0.34 -5.53,1.1 -2.5,0.8 -5.05,1.6 -5.83,0.96 -6.93,-5.6 -11.36,-14.21 -11.36,-23.88 0,-9.41 4.22,-17.85 10.85,-23.49 1.13,-0.92 8.81,2.16 8.81,2.16l-1.32 -6.85c3.78,-1.64 7.98,-2.59 12.36,-2.59 3.96,0 7.73,0.77 11.17,2.09 1.06,0.43 -3.85,9.15 -2.82,9.68 0.47,0.23 2.39,-1.57 4.31,-3.36 1.93,-1.82 3.87,-3.6 4.3,-3.34 2.59,1.71 4.87,3.84 6.78,6.17 1.11,1.25 -3.4,3.95 -2.58,5.44 1.05,1.79 7.35,2.33 8.02,4.27 1.03,3.12 1.59,6.39 1.59,9.82z"/>
  <path class="fil14" d="M3585.4 10637.31c7.56,-7.54 19.81,-7.54 27.38,0 1.2,1.21 2.23,2.58 3.04,3.98 0.76,1.3 -3.91,2.18 -3.47,3.55 0.35,1.18 5.87,2.93 5.99,4.12 0.58,5.63 -1.29,11.45 -5.56,15.76 -4.2,4.15 -9.83,6.02 -15.27,5.55 -0.95,-0.03 -2.99,-4.87 -2.99,-4.87l-2.47 3.66c-2.43,-0.95 -4.71,-2.4 -6.65,-4.34 -1.78,-1.75 -3.14,-3.78 -4.05,-5.91 -0.26,-0.69 5.77,-2.35 5.57,-3.05 -0.22,-0.63 -6.66,-0.22 -6.82,-0.9 -0.38,-1.87 -0.5,-3.82 -0.27,-5.76 0.08,-1.06 3.29,-0.22 3.56,-1.25 0.31,-1.22 -2.23,-4.31 -1.64,-5.48 0.9,-1.84 2.12,-3.54 3.65,-5.06z"/>
  <path class="fil11" d="M3446.06 10556.67l112.95 30.37 -190.32 36.59c3.92,-77.29 77.37,-66.96 77.37,-66.96z"/>
  <path class="fil12" d="M3434.11 10582.74l77.32 14.66 -137.95 26.23c3.09,-47.21 60.63,-40.89 60.63,-40.89z"/>
  <path class="fil12" d="M3487.19 10586.97c6.81,-0.54 -64.56,-20.37 -64.56,-20.37 0,0 47.08,21.77 64.56,20.37z"/>
  <path class="fil13" d="M3475.33 10587.01l109.05 2.92 -162.57 64.01c2.74,-77.29 53.52,-66.93 53.52,-66.93z"/>
  <path class="fil14" d="M3467.05 10613.09l88.15 -19.58 -130.11 60.43c2.17,-47.21 41.96,-40.85 41.96,-40.85z"/>
  <path class="fil14" d="M3555.2 10589.93c-12.62,-3.42 -104.59,7.89 -104.59,7.89 0,0 87.94,-2.24 104.59,-7.89z"/>
  <path class="fil14" d="M3494.67 10620.24l101.23 -22.84 -81.92 77.49c0,0 -39.02,-32.07 -19.31,-54.65z"/>
  <path class="fil15" d="M3463.91 10651.01c0,16.98 13.77,30.73 30.76,30.73 2.71,0 5.37,-0.34 7.92,-1.03 2.3,-0.61 -2.01,-6.78 0.08,-7.88 1.71,-0.92 9.82,3.3 11.31,2.06 6.97,-5.6 11.44,-14.21 11.44,-23.88 0,-9.41 -4.23,-17.85 -10.89,-23.49 -1.13,-0.92 -8.81,2.16 -8.81,2.16l1.32 -6.85c-3.78,-1.64 -7.98,-2.59 -12.37,-2.59 -3.95,0 -7.72,0.77 -11.17,2.09 -1.05,0.43 3.84,9.15 2.83,9.68 -0.94,0.5 -7.76,-7.28 -8.62,-6.7 -2.55,1.71 -4.86,3.84 -6.82,6.17 -1.05,1.25 3.45,3.95 2.64,5.44 -1.03,1.79 -7.38,2.33 -8.01,4.27 -1.05,3.12 -1.61,6.39 -1.61,9.82z"/>
  <path class="fil14" d="M3508.34 10637.31c-7.55,-7.54 -19.82,-7.54 -27.38,0 -1.22,1.21 -2.23,2.58 -3.06,3.98 -0.74,1.3 3.88,2.18 3.5,3.55 -0.36,1.18 -5.85,2.93 -6,4.12 -0.6,5.63 1.25,11.45 5.56,15.76 4.2,4.15 9.83,6.02 15.27,5.55 0.94,-0.03 3.03,-4.87 3.03,-4.87l2.42 3.66c2.44,-0.95 4.7,-2.4 6.66,-4.34 1.77,-1.75 3.09,-3.78 4.04,-5.91 0.28,-0.69 -5.76,-2.35 -5.56,-3.05 0.18,-0.63 6.7,-0.22 6.82,-0.9 0.34,-1.87 0.46,-3.82 0.27,-5.76 -0.08,-1.06 -3.29,-0.22 -3.58,-1.25 -0.33,-1.22 2.24,-4.31 1.66,-5.48 -0.91,-1.84 -2.12,-3.54 -3.65,-5.06z"/>
  <path class="fil11" d="M3743.69 10497.26l-106.78 20.72 187.32 48.96c-4.08,-80.5 -80.54,-69.68 -80.54,-69.68z"/>
  <path class="fil12" d="M3756.11 10524.37l-69.61 4.42 132.76 38.15c-3.21,-49.15 -63.15,-42.57 -63.15,-42.57z"/>
  <path class="fil12" d="M3711.68 10517.9c-7.04,-0.54 56.42,-10.32 56.42,-10.32 0,0 -38.19,11.76 -56.42,10.32z"/>
  <path class="fil13" d="M3724.1 10517.94l-113.59 3.04 158.4 77.56c-2.85,-80.53 -44.81,-80.6 -44.81,-80.6z"/>
  <path class="fil14" d="M3721.79 10555.93l-80.89 -31.18 124.57 73.79c-2.24,-49.19 -43.68,-42.61 -43.68,-42.61z"/>
  <path class="fil14" d="M3640.9 10520.98c13.12,-3.58 98.09,19.12 98.09,19.12 0,0 -80.77,-13.25 -98.09,-19.12z"/>
  <path class="fil14" d="M3683.76 10552.55l-85.24 -23.76 65.14 80.68c0,0 40.59,-33.43 20.1,-56.92z"/>
  <path class="fil15" d="M3715.81 10584.61c0,17.66 -14.34,31.98 -32.05,31.98 -2.81,0 -5.6,-0.35 -8.23,-1.1 -2.43,-0.58 2.08,-7.01 -0.07,-8.16 -0.88,-0.49 -3.31,0.31 -5.76,1.11 -2.61,0.83 -5.23,1.72 -6.04,1.03 -7.24,-5.86 -11.91,-14.85 -11.91,-24.86 0,-9.83 4.43,-18.58 11.36,-24.49 1.14,-0.95 9.17,2.25 9.17,2.25l-1.41 -7.12c3.96,-1.76 8.35,-2.7 12.89,-2.7 4.14,0 8.07,0.76 11.64,2.17 1.08,0.46 -4,9.55 -2.95,10.09 0.49,0.23 2.49,-1.64 4.49,-3.51 2.02,-1.86 4.04,-3.77 4.48,-3.46 2.67,1.75 5.11,3.96 7.1,6.43 1.1,1.3 -3.57,4.15 -2.72,5.6 1.11,1.9 7.66,2.43 8.35,4.53 1.06,3.23 1.66,6.62 1.66,10.21z"/>
  <path class="fil14" d="M3669.53 10570.33c7.89,-7.89 20.65,-7.89 28.53,0 1.3,1.26 2.31,2.7 3.17,4.15 0.79,1.36 -4.08,2.25 -3.6,3.73 0.38,1.18 6.07,3.01 6.19,4.26 0.62,5.83 -1.29,11.88 -5.76,16.37 -4.39,4.35 -10.23,6.32 -15.94,5.83 -0.95,-0.07 -3.1,-5.06 -3.1,-5.06l-2.51 3.77c-2.59,-0.99 -4.94,-2.47 -6.98,-4.54 -1.85,-1.82 -3.2,-3.88 -4.22,-6.12 -0.28,-0.73 6.03,-2.48 5.8,-3.2 -0.21,-0.65 -6.94,-0.23 -7.09,-0.88 -0.36,-1.98 -0.48,-4.03 -0.31,-5.98 0.14,-1.1 3.47,-0.31 3.76,-1.33 0.31,-1.33 -2.35,-4.49 -1.73,-5.74 0.94,-1.91 2.24,-3.66 3.79,-5.26z"/>
  <path class="fil14" d="M3616.81 10557.84l-24.86 -29.05 -24.82 55.82c0,0 70.17,-3.24 49.68,-26.77z"/>
  <path class="fil15" d="M3631.19 10584.61c0,17.66 -14.38,31.98 -32.05,31.98 -2.86,0 -5.59,-0.35 -8.26,-1.1 -2.38,-0.58 2.08,-7.01 -0.08,-8.16 -0.86,-0.49 -3.29,0.31 -5.75,1.11 -2.6,0.83 -5.24,1.72 -6.05,1.03 -7.24,-5.86 -11.87,-14.85 -11.87,-24.86 0,-9.83 4.39,-18.58 11.34,-24.49 1.13,-0.95 9.2,2.25 9.2,2.25l-1.38 -7.12c3.93,-1.76 8.27,-2.7 12.85,-2.7 4.12,0 8.03,0.76 11.63,2.17 1.1,0.46 -3.98,9.55 -2.92,10.09 0.46,0.23 2.46,-1.64 4.46,-3.51 2.02,-1.86 4.05,-3.77 4.5,-3.46 2.66,1.75 5.06,3.96 7.1,6.43 1.09,1.3 -3.57,4.15 -2.71,5.6 1.06,1.9 7.6,2.43 8.34,4.53 1.06,3.23 1.65,6.62 1.65,10.21z"/>
  <path class="fil14" d="M3584.89 10570.33c7.87,-7.89 20.65,-7.89 28.52,0 1.29,1.26 2.35,2.7 3.21,4.15 0.78,1.36 -4.08,2.25 -3.6,3.73 0.34,1.18 6.02,3.01 6.18,4.26 0.63,5.83 -1.33,11.88 -5.79,16.37 -4.35,4.35 -10.22,6.32 -15.9,5.83 -0.99,-0.07 -3.1,-5.06 -3.1,-5.06l-2.56 3.77c-2.54,-0.99 -4.89,-2.47 -6.96,-4.54 -1.81,-1.82 -3.2,-3.88 -4.19,-6.12 -0.28,-0.73 6,-2.48 5.79,-3.2 -0.2,-0.65 -6.96,-0.23 -7.08,-0.88 -0.4,-1.98 -0.51,-4.03 -0.32,-5.98 0.12,-1.1 3.44,-0.31 3.72,-1.33 0.35,-1.33 -2.27,-4.49 -1.68,-5.74 0.94,-1.91 2.19,-3.66 3.76,-5.26z"/>
  <path class="fil11" d="M3454.68 10497.19l102.74 20.79 -183.32 48.92c4.08,-80.53 80.58,-69.71 80.58,-69.71z"/>
  <path class="fil12" d="M3442.22 10524.3l65.65 4.49 -128.83 38.11c3.21,-49.19 63.18,-42.6 63.18,-42.6z"/>
  <path class="fil12" d="M3497.53 10528.71c7.05,-0.56 -67.3,-21.21 -67.3,-21.21 0,0 49.08,22.69 67.3,21.21z"/>
  <path class="fil13" d="M3485.11 10528.79l98.76 -7.81 -154.46 77.52c2.82,-80.52 55.7,-69.71 55.7,-69.71z"/>
  <path class="fil14" d="M3476.53 10555.9l76.91 -31.15 -120.58 73.75c2.24,-49.19 43.67,-42.6 43.67,-42.6z"/>
  <path class="fil14" d="M3553.44 10520.98c-13.14,-3.58 -94.06,19.04 -94.06,19.04 0,0 76.73,-13.17 94.06,-19.04z"/>
  <path class="fil14" d="M3519.2 10552.55l76.66 -23.76 -56.5 80.68c0,0 -40.66,-33.43 -20.16,-56.92z"/>
  <path class="fil15" d="M3487.19 10584.61c0,17.66 14.34,31.98 32.01,31.98 2.85,0 5.64,-0.35 8.25,-1.1 2.4,-0.58 -2.07,-7.01 0.12,-8.16 1.77,-0.99 10.19,3.44 11.79,2.14 7.22,-5.86 11.83,-14.85 11.83,-24.86 0,-9.83 -4.34,-18.58 -11.32,-24.45 -1.17,-0.99 -9.16,2.21 -9.16,2.21l1.37 -7.12c-3.91,-1.76 -8.27,-2.7 -12.88,-2.7 -4.13,0 -8,0.76 -11.65,2.17 -1.08,0.46 4.01,9.55 2.98,10.09 -0.97,0.49 -8.06,-7.55 -8.97,-6.97 -2.69,1.75 -5.09,3.96 -7.08,6.43 -1.1,1.3 3.56,4.15 2.69,5.6 -1.08,1.9 -7.67,2.43 -8.34,4.57 -1.09,3.19 -1.64,6.58 -1.64,10.17z"/>
  <path class="fil14" d="M3533.45 10570.33c-7.87,-7.89 -20.65,-7.89 -28.52,0 -1.24,1.26 -2.34,2.7 -3.16,4.15 -0.79,1.36 4.03,2.25 3.62,3.73 -0.38,1.18 -6.09,3.01 -6.26,4.26 -0.57,5.83 1.35,11.88 5.8,16.37 4.39,4.35 10.27,6.32 15.94,5.83 0.95,-0.07 3.1,-5.06 3.1,-5.06l2.55 3.77c2.54,-0.99 4.89,-2.47 6.93,-4.54 1.8,-1.82 3.25,-3.88 4.2,-6.12 0.3,-0.73 -6,-2.48 -5.81,-3.2 0.24,-0.65 6.98,-0.23 7.1,-0.88 0.42,-1.98 0.5,-4.03 0.31,-5.98 -0.07,-1.1 -3.41,-0.31 -3.67,-1.33 -0.36,-1.33 2.3,-4.49 1.67,-5.74 -0.93,-1.91 -2.22,-3.66 -3.8,-5.26z"/>
  <path class="fil11" d="M3754.55 10432.88l-117.64 31.57 198.21 38.11c-4.07,-80.49 -80.57,-69.68 -80.57,-69.68z"/>
  <path class="fil12" d="M3766.97 10459.99l-80.47 15.26 143.64 27.31c-3.16,-49.16 -63.17,-42.57 -63.17,-42.57z"/>
  <path class="fil12" d="M3711.68 10464.4c-7.04,-0.53 67.28,-21.21 67.28,-21.21 0,0 -49.05,22.66 -67.28,21.21z"/>
  <path class="fil13" d="M3724.1 10464.45l-113.59 3.04 169.29 66.67c-2.85,-80.52 -55.7,-69.71 -55.7,-69.71z"/>
  <path class="fil14" d="M3732.69 10491.56l-91.79 -20.34 135.47 62.94c-2.23,-49.16 -43.68,-42.6 -43.68,-42.6z"/>
  <path class="fil14" d="M3640.9 10467.49c13.12,-3.58 108.9,8.22 108.9,8.22 0,0 -91.58,-2.32 -108.9,-8.22z"/>
  <path class="fil14" d="M3703.97 10499.05l-105.45 -23.8 85.32 80.72c0,0 40.58,-33.43 20.13,-56.92z"/>
  <path class="fil15" d="M3735.97 10531.11c0,17.63 -14.34,31.98 -32,31.98 -2.86,0 -5.64,-0.38 -8.31,-1.06 -2.39,-0.64 2.09,-7.05 -0.07,-8.22 -1.77,-0.96 -10.23,3.45 -11.75,2.16 -7.28,-5.87 -11.91,-14.81 -11.91,-24.86 0,-9.82 4.39,-18.62 11.32,-24.48 1.17,-0.99 9.2,2.24 9.2,2.24l-1.41 -7.11c3.96,-1.72 8.32,-2.71 12.93,-2.71 4.07,0 7.99,0.8 11.6,2.17 1.1,0.42 -4,9.52 -2.95,10.1 0.95,0.49 8.07,-7.55 8.99,-6.94 2.65,1.71 5.04,3.92 7.07,6.4 1.11,1.3 -3.6,4.08 -2.69,5.63 1.06,1.87 7.64,2.4 8.3,4.5 1.1,3.2 1.68,6.63 1.68,10.2z"/>
  <path class="fil14" d="M3689.72 10516.83c7.82,-7.88 20.59,-7.88 28.46,0 1.27,1.3 2.35,2.67 3.22,4.15 0.78,1.38 -4.06,2.25 -3.65,3.69 0.41,1.26 6.09,3.05 6.24,4.31 0.62,5.83 -1.33,11.88 -5.81,16.33 -4.33,4.42 -10.21,6.32 -15.9,5.87 -0.97,-0.09 -3.08,-5.11 -3.08,-5.11l-2.6 3.82c-2.49,-1.04 -4.89,-2.52 -6.88,-4.58 -1.85,-1.79 -3.22,-3.88 -4.25,-6.09 -0.3,-0.68 6.04,-2.47 5.82,-3.15 -0.25,-0.66 -6.98,-0.27 -7.11,-0.96 -0.38,-1.94 -0.5,-4 -0.26,-5.97 0.07,-1.11 3.45,-0.28 3.67,-1.3 0.36,-1.33 -2.3,-4.5 -1.68,-5.71 0.94,-1.94 2.2,-3.74 3.81,-5.3z"/>
  <path class="fil14" d="M3616.81 10504.38l-24.86 -29.13 -24.82 55.86c0,0 70.17,-3.27 49.68,-26.73z"/>
  <path class="fil15" d="M3631.19 10531.11c0,17.63 -14.38,31.98 -32.05,31.98 -2.86,0 -5.59,-0.38 -8.26,-1.06 -2.38,-0.64 2.08,-7.05 -0.08,-8.22 -1.76,-0.96 -10.22,3.45 -11.79,2.16 -7.25,-5.87 -11.88,-14.81 -11.88,-24.86 0,-9.82 4.39,-18.62 11.34,-24.48 1.13,-0.99 9.2,2.24 9.2,2.24l-1.38 -7.11c3.93,-1.72 8.27,-2.71 12.85,-2.71 4.12,0 8.03,0.8 11.63,2.17 1.1,0.42 -3.98,9.52 -2.92,10.1 0.93,0.49 8.07,-7.55 8.96,-6.94 2.66,1.71 5.06,3.92 7.09,6.4 1.11,1.3 -3.56,4.08 -2.7,5.63 1.06,1.87 7.6,2.4 8.34,4.5 1.05,3.2 1.65,6.63 1.65,10.2z"/>
  <path class="fil14" d="M3584.89 10516.83c7.87,-7.88 20.65,-7.88 28.52,0 1.29,1.3 2.35,2.67 3.21,4.15 0.78,1.38 -4.08,2.25 -3.6,3.69 0.34,1.26 6.02,3.05 6.18,4.31 0.63,5.83 -1.33,11.88 -5.79,16.33 -4.35,4.42 -10.22,6.32 -15.9,5.87 -0.99,-0.09 -3.1,-5.11 -3.1,-5.11l-2.56 3.82c-2.54,-1.04 -4.89,-2.52 -6.96,-4.58 -1.81,-1.79 -3.2,-3.88 -4.19,-6.09 -0.28,-0.68 6,-2.47 5.79,-3.15 -0.2,-0.66 -6.96,-0.27 -7.08,-0.96 -0.4,-1.94 -0.51,-4 -0.32,-5.97 0.12,-1.11 3.44,-0.28 3.72,-1.3 0.35,-1.33 -2.27,-4.5 -1.68,-5.71 0.94,-1.94 2.19,-3.74 3.76,-5.3z"/>
  <path class="fil11" d="M3439.75 10432.88l117.67 31.57 -198.21 38.11c4.07,-80.49 80.54,-69.68 80.54,-69.68z"/>
  <path class="fil12" d="M3427.37 10459.99l80.5 15.26 -143.69 27.31c3.21,-49.16 63.19,-42.57 63.19,-42.57z"/>
  <path class="fil12" d="M3482.65 10464.4c7.08,-0.53 -67.31,-21.21 -67.31,-21.21 0,0 49.09,22.66 67.31,21.21z"/>
  <path class="fil13" d="M3470.22 10464.45l113.65 3.04 -169.3 66.67c2.85,-80.52 55.65,-69.71 55.65,-69.71z"/>
  <path class="fil14" d="M3461.64 10491.56l91.8 -20.34 -135.44 62.94c2.2,-49.16 43.64,-42.6 43.64,-42.6z"/>
  <path class="fil14" d="M3553.44 10467.49c-13.14,-3.58 -108.91,8.22 -108.91,8.22 0,0 91.58,-2.32 108.91,-8.22z"/>
  <path class="fil14" d="M3490.41 10499.05l105.45 -23.8 -85.33 80.72c0,0 -40.58,-33.43 -20.12,-56.92z"/>
  <path class="fil15" d="M3458.36 10531.11c0,17.63 14.37,31.98 32.05,31.98 2.85,0 5.63,-0.38 8.25,-1.06 2.44,-0.64 -2.07,-7.05 0.09,-8.22 1.8,-0.96 10.26,3.45 11.78,2.16 7.29,-5.87 11.88,-14.81 11.88,-24.86 0,-9.82 -4.39,-18.62 -11.33,-24.48 -1.13,-0.99 -9.17,2.24 -9.17,2.24l1.37 -7.11c-3.95,-1.72 -8.29,-2.71 -12.87,-2.71 -4.12,0 -8.01,0.8 -11.65,2.17 -1.05,0.42 4.05,9.52 2.99,10.1 -0.98,0.49 -8.12,-7.55 -9.02,-6.94 -2.66,1.71 -5.05,3.92 -7.09,6.4 -1.1,1.3 3.65,4.08 2.71,5.63 -1.06,1.87 -7.64,2.4 -8.32,4.5 -1.08,3.2 -1.67,6.63 -1.67,10.2z"/>
  <path class="fil14" d="M3504.65 10516.83c-7.87,-7.88 -20.64,-7.88 -28.5,0 -1.25,1.3 -2.31,2.67 -3.17,4.15 -0.79,1.38 4.07,2.25 3.64,3.69 -0.4,1.26 -6.11,3.05 -6.28,4.31 -0.57,5.83 1.34,11.88 5.81,16.33 4.38,4.42 10.21,6.32 15.89,5.87 0.99,-0.09 3.14,-5.11 3.14,-5.11l2.54 3.82c2.52,-1.04 4.89,-2.52 6.93,-4.58 1.82,-1.79 3.22,-3.88 4.2,-6.09 0.28,-0.68 -6,-2.47 -5.76,-3.15 0.19,-0.66 6.91,-0.27 7.05,-0.96 0.39,-1.94 0.5,-4 0.32,-5.97 -0.13,-1.11 -3.46,-0.28 -3.72,-1.3 -0.36,-1.33 2.35,-4.5 1.72,-5.71 -0.94,-1.94 -2.23,-3.74 -3.81,-5.3z"/>
  <path class="fil11" d="M3737.86 10398.12l-102.52 19.87 179.88 47.06c-3.96,-77.29 -77.36,-66.93 -77.36,-66.93z"/>
  <path class="fil12" d="M3749.76 10424.17l-66.82 4.18 127.5 36.7c-3.09,-47.21 -60.68,-40.88 -60.68,-40.88z"/>
  <path class="fil12" d="M3707.1 10417.96c-6.78,-0.54 54.19,-9.95 54.19,-9.95 0,0 -36.64,11.32 -54.19,9.95z"/>
  <path class="fil13" d="M3719.05 10417.99l-109.09 2.9 152.1 74.47c-2.74,-77.26 -43.01,-77.37 -43.01,-77.37z"/>
  <path class="fil14" d="M3716.87 10454.51l-77.69 -30 119.59 70.85c-2.15,-47.21 -41.9,-40.85 -41.9,-40.85z"/>
  <path class="fil14" d="M3639.18 10420.89c12.61,-3.43 94.13,18.35 94.13,18.35 0,0 -77.52,-12.69 -94.13,-18.35z"/>
  <path class="fil14" d="M3680.35 10451.23l-81.9 -22.88 62.55 77.56c0,0 39.01,-32.14 19.35,-54.68z"/>
  <path class="fil15" d="M3711.1 10482c0,16.98 -13.75,30.76 -30.75,30.76 -2.74,0 -5.4,-0.38 -7.96,-1.07 -2.27,-0.6 2.01,-6.81 -0.07,-7.92 -1.69,-0.87 -9.83,3.32 -11.32,2.14 -6.98,-5.68 -11.39,-14.28 -11.39,-23.91 0,-9.41 4.22,-17.86 10.84,-23.5 1.14,-0.95 8.84,2.13 8.84,2.13l-1.31 -6.78c3.76,-1.7 7.95,-2.62 12.37,-2.62 3.93,0 7.67,0.76 11.16,2.09 1.07,0.42 -3.83,9.1 -2.85,9.63 0.94,0.5 7.79,-7.22 8.61,-6.62 2.59,1.68 4.86,3.77 6.82,6.13 1.05,1.26 -3.41,3.96 -2.59,5.41 1.03,1.79 7.38,2.32 8,4.34 1.05,3.08 1.6,6.36 1.6,9.79z"/>
  <path class="fil14" d="M3666.63 10468.28c7.57,-7.54 19.87,-7.54 27.39,0 1.22,1.23 2.27,2.6 3.09,4.01 0.74,1.29 -3.91,2.13 -3.48,3.54 0.31,1.18 5.83,2.9 5.95,4.1 0.63,5.65 -1.25,11.43 -5.56,15.73 -4.19,4.19 -9.84,6.05 -15.27,5.6 -0.9,-0.07 -2.98,-4.88 -2.98,-4.88l-2.47 3.62c-2.43,-0.91 -4.65,-2.4 -6.67,-4.34 -1.72,-1.75 -3.09,-3.73 -4.02,-5.9 -0.27,-0.64 5.8,-2.36 5.55,-3.04 -0.18,-0.65 -6.66,-0.23 -6.81,-0.88 -0.35,-1.9 -0.47,-3.84 -0.27,-5.75 0.08,-1.07 3.29,-0.23 3.56,-1.26 0.36,-1.26 -2.2,-4.3 -1.65,-5.48 0.95,-1.83 2.16,-3.54 3.64,-5.07z"/>
  <path class="fil14" d="M3616.02 10456.33l-23.88 -27.98 -23.78 53.65c0,0 67.34,-3.17 47.66,-25.67z"/>
  <path class="fil15" d="M3629.83 10482c0,16.98 -13.76,30.76 -30.77,30.76 -2.73,0 -5.41,-0.38 -7.91,-1.07 -2.3,-0.6 1.97,-6.81 -0.07,-7.92 -1.72,-0.87 -9.83,3.32 -11.36,2.14 -6.93,-5.68 -11.36,-14.28 -11.36,-23.91 0,-9.41 4.22,-17.86 10.85,-23.5 1.13,-0.95 8.81,2.13 8.81,2.13l-1.32 -6.78c3.78,-1.7 7.98,-2.62 12.36,-2.62 3.96,0 7.73,0.76 11.18,2.09 1.05,0.42 -3.86,9.1 -2.83,9.63 0.94,0.5 7.75,-7.22 8.61,-6.62 2.59,1.68 4.87,3.77 6.78,6.13 1.1,1.26 -3.4,3.96 -2.58,5.41 1.05,1.79 7.35,2.32 8.02,4.34 1.03,3.08 1.59,6.36 1.59,9.79z"/>
  <path class="fil14" d="M3585.4 10468.28c7.56,-7.54 19.81,-7.54 27.38,0 1.2,1.23 2.23,2.6 3.04,4.01 0.76,1.29 -3.91,2.13 -3.47,3.54 0.35,1.18 5.87,2.9 5.99,4.1 0.58,5.65 -1.29,11.43 -5.56,15.73 -4.2,4.19 -9.83,6.05 -15.27,5.6 -0.95,-0.07 -2.99,-4.88 -2.99,-4.88l-2.47 3.62c-2.43,-0.91 -4.71,-2.4 -6.65,-4.34 -1.78,-1.75 -3.14,-3.73 -4.05,-5.9 -0.27,-0.64 5.77,-2.36 5.57,-3.04 -0.22,-0.65 -6.65,-0.23 -6.82,-0.88 -0.38,-1.9 -0.5,-3.84 -0.27,-5.75 0.08,-1.07 3.29,-0.23 3.56,-1.26 0.31,-1.26 -2.23,-4.3 -1.64,-5.48 0.9,-1.83 2.12,-3.54 3.65,-5.07z"/>
  <path class="fil11" d="M3460.32 10398.04l98.69 19.95 -176.06 46.99c3.96,-77.29 77.37,-66.94 77.37,-66.94z"/>
  <path class="fil12" d="M3448.38 10424.08l63.05 4.27 -123.7 36.63c3.09,-47.22 60.65,-40.9 60.65,-40.9z"/>
  <path class="fil12" d="M3501.49 10428.32c6.8,-0.54 -64.64,-20.34 -64.64,-20.34 0,0 47.13,21.74 64.64,20.34z"/>
  <path class="fil13" d="M3489.57 10428.39l94.81 -7.5 -148.28 74.43c2.71,-77.33 53.47,-66.93 53.47,-66.93z"/>
  <path class="fil14" d="M3481.32 10454.43l73.88 -29.92 -115.81 70.81c2.13,-47.21 41.93,-40.89 41.93,-40.89z"/>
  <path class="fil14" d="M3555.2 10420.89c-12.62,-3.43 -90.35,18.27 -90.35,18.27 0,0 73.7,-12.61 90.35,-18.27z"/>
  <path class="fil14" d="M3522.29 10451.23l73.61 -22.88 -54.26 77.56c0,0 -38.97,-32.14 -19.35,-54.68z"/>
  <path class="fil15" d="M3491.58 10482c0,16.98 13.75,30.76 30.71,30.76 2.74,0 5.4,-0.38 7.95,-1.07 2.32,-0.6 -1.95,-6.81 0.09,-7.92 1.71,-0.87 9.82,3.32 11.31,2.14 6.94,-5.68 11.44,-14.28 11.44,-23.91 0,-9.41 -4.24,-17.86 -10.93,-23.5 -1.1,-0.95 -8.82,2.13 -8.82,2.13l1.38 -6.78c-3.8,-1.7 -8,-2.62 -12.42,-2.62 -3.92,0 -7.69,0.76 -11.17,2.09 -1.01,0.42 3.84,9.1 2.86,9.63 -0.94,0.5 -7.75,-7.22 -8.61,-6.62 -2.59,1.68 -4.89,3.77 -6.81,6.13 -1.08,1.26 3.43,3.96 2.57,5.41 -1.01,1.79 -7.31,2.32 -7.99,4.34 -1.01,3.08 -1.56,6.36 -1.56,9.79z"/>
  <path class="fil14" d="M3535.99 10468.28c-7.59,-7.54 -19.81,-7.54 -27.38,0 -1.2,1.23 -2.23,2.6 -3.09,4.01 -0.7,1.29 3.92,2.13 3.49,3.54 -0.35,1.18 -5.8,2.9 -5.96,4.1 -0.58,5.65 1.29,11.43 5.56,15.73 4.19,4.19 9.8,6.05 15.29,5.6 0.94,-0.07 3.01,-4.88 3.01,-4.88l2.43 3.62c2.43,-0.91 4.71,-2.4 6.65,-4.34 1.77,-1.75 3.11,-3.73 4.04,-5.9 0.27,-0.64 -5.79,-2.36 -5.55,-3.04 0.19,-0.65 6.66,-0.23 6.77,-0.88 0.39,-1.9 0.51,-3.84 0.31,-5.75 -0.09,-1.07 -3.29,-0.23 -3.56,-1.26 -0.31,-1.26 2.23,-4.3 1.61,-5.48 -0.91,-1.83 -2.12,-3.54 -3.62,-5.07z"/>
  <path class="fil11" d="M3748.31 10336.32l-112.97 30.35 190.35 36.55c-3.96,-77.3 -77.38,-66.9 -77.38,-66.9z"/>
  <path class="fil12" d="M3760.23 10362.33l-77.29 14.66 137.92 26.23c-3.06,-47.25 -60.63,-40.89 -60.63,-40.89z"/>
  <path class="fil12" d="M3707.1 10366.6c-6.78,-0.58 64.64,-20.38 64.64,-20.38 0,0 -47.09,21.78 -64.64,20.38z"/>
  <path class="fil13" d="M3719.05 10366.63l-109.09 2.93 162.57 64.01c-2.7,-77.3 -53.48,-66.94 -53.48,-66.94z"/>
  <path class="fil14" d="M3727.27 10392.68l-88.09 -19.54 130.05 60.43c-2.16,-47.22 -41.96,-40.89 -41.96,-40.89z"/>
  <path class="fil14" d="M3639.18 10369.56c12.61,-3.47 104.58,7.84 104.58,7.84 0,0 -87.97,-2.2 -104.58,-7.84z"/>
  <path class="fil14" d="M3699.7 10399.87l-101.25 -22.88 81.9 77.52c0,0 39.01,-32.1 19.35,-54.64z"/>
  <path class="fil15" d="M3730.41 10430.63c0,16.99 -13.74,30.72 -30.71,30.72 -2.74,0 -5.4,-0.34 -7.91,-1.02 -2.36,-0.61 1.96,-6.78 -0.12,-7.88 -1.73,-0.91 -9.79,3.28 -11.32,2.06 -6.93,-5.65 -11.44,-14.25 -11.44,-23.88 0,-9.44 4.27,-17.85 10.93,-23.49 1.13,-0.92 8.82,2.14 8.82,2.14l-1.34 -6.82c3.8,-1.67 7.96,-2.59 12.38,-2.59 3.93,0 7.69,0.72 11.17,2.05 1.01,0.42 -3.84,9.14 -2.86,9.68 0.93,0.49 7.75,-7.24 8.66,-6.67 2.54,1.72 4.84,3.77 6.81,6.13 1.01,1.3 -3.48,4.01 -2.62,5.45 1.02,1.75 7.32,2.35 7.99,4.3 1.06,3.08 1.56,6.35 1.56,9.82z"/>
  <path class="fil14" d="M3686.03 10416.92c7.55,-7.57 19.77,-7.57 27.33,0 1.27,1.23 2.25,2.56 3.11,3.97 0.75,1.33 -3.92,2.16 -3.49,3.58 0.35,1.17 5.84,2.89 5.96,4.07 0.58,5.67 -1.26,11.42 -5.58,15.8 -4.17,4.15 -9.78,6.01 -15.27,5.56 -0.94,-0.08 -2.97,-4.87 -2.97,-4.87l-2.42 3.62c-2.43,-0.96 -4.75,-2.41 -6.67,-4.31 -1.75,-1.79 -3.09,-3.77 -4.07,-5.94 -0.27,-0.64 5.79,-2.36 5.55,-3.01 -0.14,-0.65 -6.65,-0.27 -6.78,-0.95 -0.38,-1.83 -0.46,-3.81 -0.31,-5.71 0.12,-1.07 3.31,-0.27 3.61,-1.26 0.32,-1.25 -2.27,-4.29 -1.64,-5.48 0.9,-1.87 2.11,-3.53 3.64,-5.07z"/>
  <path class="fil14" d="M3616.02 10404.93l-23.88 -27.94 -23.78 53.64c0,0 67.34,-3.13 47.66,-25.7z"/>
  <path class="fil15" d="M3629.83 10430.63c0,16.99 -13.76,30.72 -30.77,30.72 -2.73,0 -5.41,-0.34 -7.91,-1.02 -2.3,-0.61 1.97,-6.78 -0.07,-7.88 -1.72,-0.91 -9.83,3.28 -11.36,2.06 -6.93,-5.65 -11.36,-14.25 -11.36,-23.88 0,-9.44 4.22,-17.85 10.85,-23.49 1.13,-0.92 8.81,2.14 8.81,2.14l-1.32 -6.82c3.78,-1.67 7.98,-2.59 12.36,-2.59 3.96,0 7.73,0.72 11.18,2.05 1.05,0.42 -3.86,9.14 -2.83,9.68 0.94,0.49 7.75,-7.24 8.61,-6.67 2.59,1.72 4.87,3.77 6.78,6.13 1.1,1.3 -3.4,4.01 -2.58,5.45 1.05,1.75 7.35,2.35 8.02,4.3 1.03,3.08 1.59,6.35 1.59,9.82z"/>
  <path class="fil14" d="M3585.4 10416.92c7.56,-7.57 19.81,-7.57 27.38,0 1.2,1.23 2.23,2.56 3.04,3.97 0.76,1.33 -3.91,2.16 -3.47,3.58 0.35,1.17 5.87,2.89 5.99,4.07 0.58,5.67 -1.29,11.42 -5.56,15.8 -4.2,4.15 -9.83,6.01 -15.27,5.56 -0.95,-0.08 -2.99,-4.87 -2.99,-4.87l-2.47 3.62c-2.43,-0.96 -4.71,-2.41 -6.65,-4.31 -1.78,-1.79 -3.14,-3.77 -4.05,-5.94 -0.27,-0.64 5.77,-2.36 5.57,-3.01 -0.22,-0.65 -6.65,-0.27 -6.82,-0.95 -0.38,-1.83 -0.5,-3.81 -0.27,-5.71 0.08,-1.07 3.29,-0.27 3.56,-1.26 0.31,-1.25 -2.23,-4.29 -1.64,-5.48 0.9,-1.87 2.12,-3.53 3.65,-5.07z"/>
  <path class="fil11" d="M3446.06 10336.32l112.95 30.35 -190.32 36.55c3.92,-77.3 77.37,-66.9 77.37,-66.9z"/>
  <path class="fil12" d="M3434.11 10362.33l77.32 14.66 -137.95 26.23c3.09,-47.25 60.63,-40.89 60.63,-40.89z"/>
  <path class="fil12" d="M3487.19 10366.6c6.81,-0.58 -64.56,-20.38 -64.56,-20.38 0,0 47.08,21.78 64.56,20.38z"/>
  <path class="fil13" d="M3475.33 10366.63l109.05 2.93 -162.57 64.01c2.74,-77.3 53.52,-66.94 53.52,-66.94z"/>
  <path class="fil14" d="M3467.05 10392.68l88.15 -19.54 -130.11 60.43c2.17,-47.22 41.96,-40.89 41.96,-40.89z"/>
  <path class="fil14" d="M3555.2 10369.56c-12.62,-3.47 -104.59,7.84 -104.59,7.84 0,0 87.94,-2.2 104.59,-7.84z"/>
  <path class="fil14" d="M3494.67 10399.87l101.23 -22.88 -81.92 77.52c0,0 -39.02,-32.1 -19.31,-54.64z"/>
  <path class="fil15" d="M3463.91 10430.63c0,16.99 13.77,30.72 30.76,30.72 2.71,0 5.37,-0.34 7.92,-1.02 2.3,-0.61 -2.01,-6.78 0.08,-7.88 1.71,-0.91 9.82,3.28 11.31,2.06 6.97,-5.65 11.44,-14.25 11.44,-23.88 0,-9.44 -4.23,-17.85 -10.89,-23.49 -1.13,-0.92 -8.81,2.14 -8.81,2.14l1.32 -6.82c-3.78,-1.67 -7.98,-2.59 -12.37,-2.59 -3.95,0 -7.72,0.72 -11.17,2.05 -1.05,0.42 3.84,9.14 2.83,9.68 -0.94,0.49 -7.76,-7.24 -8.62,-6.67 -2.55,1.72 -4.86,3.77 -6.82,6.13 -1.05,1.3 3.45,4.01 2.64,5.45 -1.03,1.75 -7.38,2.35 -8.01,4.3 -1.05,3.08 -1.61,6.35 -1.61,9.82z"/>
  <path class="fil14" d="M3508.34 10416.92c-7.55,-7.57 -19.82,-7.57 -27.38,0 -1.22,1.23 -2.23,2.56 -3.06,3.97 -0.74,1.33 3.88,2.16 3.5,3.58 -0.36,1.17 -5.85,2.89 -6,4.07 -0.6,5.67 1.25,11.42 5.56,15.8 4.2,4.15 9.83,6.01 15.27,5.56 0.94,-0.08 3.03,-4.87 3.03,-4.87l2.42 3.62c2.44,-0.96 4.7,-2.41 6.66,-4.31 1.77,-1.79 3.09,-3.77 4.04,-5.94 0.28,-0.64 -5.76,-2.36 -5.56,-3.01 0.18,-0.65 6.7,-0.27 6.82,-0.95 0.34,-1.83 0.46,-3.81 0.27,-5.71 -0.08,-1.07 -3.29,-0.27 -3.58,-1.26 -0.33,-1.25 2.24,-4.29 1.66,-5.48 -0.91,-1.87 -2.12,-3.53 -3.65,-5.07z"/>
  <path class="fil11" d="M3743.69 10276.84l-106.78 20.72 187.32 49.01c-4.08,-80.49 -80.54,-69.73 -80.54,-69.73z"/>
  <path class="fil12" d="M3756.11 10303.96l-69.61 4.41 132.76 38.2c-3.21,-49.2 -63.15,-42.61 -63.15,-42.61z"/>
  <path class="fil12" d="M3711.68 10297.52c-7.04,-0.57 56.42,-10.31 56.42,-10.31 0,0 -38.19,11.73 -56.42,10.31z"/>
  <path class="fil13" d="M3724.1 10297.56l-113.59 3.01 158.4 77.56c-2.85,-80.49 -44.81,-80.57 -44.81,-80.57z"/>
  <path class="fil14" d="M3721.79 10335.56l-80.89 -31.22 124.57 73.79c-2.24,-49.16 -43.68,-42.57 -43.68,-42.57z"/>
  <path class="fil14" d="M3640.9 10300.57c13.12,-3.58 98.09,19.11 98.09,19.11 0,0 -80.77,-13.21 -98.09,-19.11z"/>
  <path class="fil14" d="M3683.76 10332.17l-85.24 -23.8 65.14 80.72c0,0 40.59,-33.43 20.1,-56.92z"/>
  <path class="fil15" d="M3715.81 10364.2c0,17.66 -14.34,32.01 -32.05,32.01 -2.81,0 -5.6,-0.38 -8.23,-1.07 -2.43,-0.64 2.08,-7.08 -0.07,-8.21 -1.8,-0.96 -10.22,3.42 -11.8,2.16 -7.24,-5.86 -11.91,-14.89 -11.91,-24.89 0,-9.83 4.43,-18.55 11.36,-24.45 1.14,-0.99 9.18,2.2 9.18,2.2l-1.42 -7.08c3.96,-1.74 8.35,-2.7 12.89,-2.7 4.14,0 8.07,0.8 11.64,2.16 1.08,0.43 -4,9.53 -2.95,10.06 0.99,0.49 8.08,-7.53 8.97,-6.93 2.67,1.75 5.11,3.93 7.1,6.4 1.1,1.33 -3.57,4.16 -2.72,5.64 1.11,1.86 7.66,2.43 8.35,4.53 1.06,3.15 1.66,6.58 1.66,10.17z"/>
  <path class="fil14" d="M3669.53 10349.92c7.89,-7.85 20.65,-7.85 28.53,0 1.3,1.29 2.31,2.69 3.17,4.18 0.79,1.34 -4.08,2.25 -3.6,3.69 0.38,1.23 6.07,3.02 6.19,4.31 0.62,5.83 -1.29,11.88 -5.76,16.38 -4.39,4.29 -10.23,6.27 -15.94,5.77 -0.95,-0.07 -3.1,-5.06 -3.1,-5.06l-2.51 3.78c-2.59,-1 -4.94,-2.52 -6.98,-4.49 -1.85,-1.84 -3.2,-3.93 -4.22,-6.14 -0.28,-0.73 6.03,-2.47 5.8,-3.2 -0.21,-0.65 -6.94,-0.26 -7.09,-0.92 -0.36,-1.94 -0.48,-3.99 -0.31,-6 0.14,-1.07 3.47,-0.24 3.76,-1.31 0.31,-1.29 -2.35,-4.48 -1.73,-5.74 0.94,-1.87 2.24,-3.66 3.79,-5.25z"/>
  <path class="fil14" d="M3616.81 10337.46l-24.86 -29.09 -24.82 55.83c0,0 70.17,-3.29 49.68,-26.74z"/>
  <path class="fil15" d="M3631.19 10364.2c0,17.66 -14.38,32.01 -32.05,32.01 -2.86,0 -5.59,-0.38 -8.26,-1.07 -2.38,-0.64 2.08,-7.08 -0.08,-8.21 -1.76,-0.96 -10.22,3.42 -11.79,2.16 -7.25,-5.86 -11.88,-14.89 -11.88,-24.89 0,-9.83 4.39,-18.55 11.34,-24.45 1.13,-0.99 9.2,2.2 9.2,2.2l-1.38 -7.08c3.93,-1.74 8.27,-2.7 12.85,-2.7 4.12,0 8.03,0.8 11.63,2.16 1.1,0.43 -3.98,9.53 -2.92,10.06 0.93,0.49 8.07,-7.53 8.96,-6.93 2.66,1.75 5.06,3.93 7.09,6.4 1.11,1.33 -3.56,4.16 -2.7,5.64 1.06,1.86 7.6,2.43 8.34,4.53 1.05,3.15 1.65,6.58 1.65,10.17z"/>
  <path class="fil14" d="M3584.89 10349.92c7.87,-7.85 20.65,-7.85 28.52,0 1.29,1.29 2.35,2.69 3.21,4.18 0.78,1.34 -4.08,2.25 -3.6,3.69 0.34,1.23 6.02,3.02 6.18,4.31 0.63,5.83 -1.33,11.88 -5.79,16.38 -4.35,4.29 -10.22,6.27 -15.9,5.77 -0.99,-0.07 -3.1,-5.06 -3.1,-5.06l-2.56 3.78c-2.54,-1 -4.89,-2.52 -6.96,-4.49 -1.81,-1.84 -3.2,-3.93 -4.19,-6.14 -0.28,-0.73 6,-2.47 5.79,-3.2 -0.2,-0.65 -6.96,-0.26 -7.08,-0.92 -0.4,-1.94 -0.51,-3.99 -0.32,-6 0.12,-1.07 3.44,-0.24 3.72,-1.31 0.35,-1.29 -2.27,-4.48 -1.68,-5.74 0.94,-1.87 2.19,-3.66 3.76,-5.25z"/>
  <path class="fil11" d="M3454.68 10276.77l102.74 20.79 -183.32 48.89c4.08,-80.46 80.58,-69.68 80.58,-69.68z"/>
  <path class="fil12" d="M3442.22 10303.88l65.65 4.49 -128.83 38.08c3.21,-49.11 63.18,-42.57 63.18,-42.57z"/>
  <path class="fil12" d="M3497.53 10308.3c7.05,-0.54 -67.3,-21.17 -67.3,-21.17 0,0 49.08,22.62 67.3,21.17z"/>
  <path class="fil13" d="M3485.11 10308.37l98.76 -7.8 -154.46 77.51c2.82,-80.52 55.7,-69.71 55.7,-69.71z"/>
  <path class="fil14" d="M3476.53 10335.53l76.91 -31.19 -120.58 73.74c2.24,-49.18 43.67,-42.55 43.67,-42.55z"/>
  <path class="fil14" d="M3553.44 10300.57c-13.14,-3.58 -94.06,19.04 -94.06,19.04 0,0 76.73,-13.14 94.06,-19.04z"/>
  <path class="fil14" d="M3519.2 10332.17l76.66 -23.8 -56.5 80.72c0,0 -40.66,-33.43 -20.16,-56.92z"/>
  <path class="fil15" d="M3487.19 10364.2c0,17.66 14.34,32.01 32.01,32.01 2.85,0 5.64,-0.38 8.25,-1.07 2.4,-0.64 -2.07,-7.08 0.12,-8.21 1.77,-0.96 10.19,3.42 11.79,2.16 7.22,-5.86 11.83,-14.89 11.83,-24.89 0,-9.83 -4.34,-18.55 -11.32,-24.45 -1.17,-0.99 -9.16,2.2 -9.16,2.2l1.37 -7.08c-3.91,-1.74 -8.27,-2.7 -12.88,-2.7 -4.13,0 -8,0.8 -11.65,2.16 -1.08,0.43 4.01,9.53 2.98,10.06 -0.97,0.49 -8.06,-7.53 -8.97,-6.93 -2.69,1.75 -5.09,3.93 -7.08,6.4 -1.1,1.33 3.56,4.16 2.69,5.64 -1.08,1.86 -7.67,2.43 -8.34,4.53 -1.09,3.15 -1.64,6.58 -1.64,10.17z"/>
  <path class="fil14" d="M3533.45 10349.92c-7.87,-7.85 -20.65,-7.85 -28.52,0 -1.24,1.29 -2.34,2.69 -3.16,4.18 -0.79,1.34 4.03,2.25 3.62,3.69 -0.38,1.23 -6.09,3.02 -6.26,4.31 -0.57,5.83 1.35,11.88 5.8,16.38 4.39,4.29 10.27,6.27 15.94,5.77 0.95,-0.07 3.1,-5.06 3.1,-5.06l2.55 3.78c2.54,-1 4.89,-2.52 6.93,-4.49 1.8,-1.84 3.25,-3.93 4.2,-6.14 0.3,-0.73 -6,-2.47 -5.81,-3.2 0.24,-0.65 6.98,-0.26 7.1,-0.92 0.42,-1.94 0.5,-3.99 0.31,-6 -0.07,-1.07 -3.41,-0.24 -3.67,-1.31 -0.36,-1.29 2.3,-4.48 1.67,-5.74 -0.93,-1.87 -2.22,-3.66 -3.8,-5.25z"/>
  <path class="fil11" d="M3754.55 10212.46l-117.64 31.61 198.21 38.1c-4.07,-80.48 -80.57,-69.71 -80.57,-69.71z"/>
  <path class="fil12" d="M3766.97 10239.57l-80.47 15.31 143.64 27.29c-3.16,-49.18 -63.17,-42.6 -63.17,-42.6z"/>
  <path class="fil12" d="M3711.68 10243.98c-7.04,-0.52 67.28,-21.19 67.28,-21.19 0,0 -49.05,22.69 -67.28,21.19z"/>
  <path class="fil13" d="M3724.1 10244.07l-113.59 3.01 169.29 66.66c-2.85,-80.49 -55.7,-69.67 -55.7,-69.67z"/>
  <path class="fil14" d="M3732.69 10271.17l-91.79 -20.33 135.47 62.9c-2.23,-49.15 -43.68,-42.57 -43.68,-42.57z"/>
  <path class="fil14" d="M3640.9 10247.08c13.12,-3.58 108.9,8.23 108.9,8.23 0,0 -91.58,-2.33 -108.9,-8.23z"/>
  <path class="fil14" d="M3703.97 10278.68l-105.45 -23.8 85.32 80.68c0,0 40.58,-33.43 20.13,-56.88z"/>
  <path class="fil15" d="M3735.97 10310.7c0,17.66 -14.34,32.02 -32,32.02 -2.86,0 -5.64,-0.38 -8.31,-1.11 -2.39,-0.61 2.09,-7.04 -0.07,-8.18 -1.77,-0.99 -10.23,3.43 -11.75,2.13 -7.28,-5.82 -11.91,-14.82 -11.91,-24.86 0,-9.79 4.39,-18.58 11.32,-24.44 1.17,-1 9.2,2.2 9.2,2.2l-1.41 -7.08c3.96,-1.75 8.32,-2.7 12.93,-2.7 4.07,0 7.99,0.76 11.6,2.16 1.1,0.43 -4,9.53 -2.95,10.06 0.95,0.54 8.07,-7.54 8.99,-6.93 2.65,1.75 5.04,3.92 7.07,6.4 1.11,1.33 -3.6,4.1 -2.69,5.63 1.06,1.87 7.64,2.44 8.3,4.54 1.1,3.15 1.68,6.62 1.68,10.16z"/>
  <path class="fil14" d="M3689.72 10296.45c7.82,-7.87 20.59,-7.87 28.46,0 1.27,1.26 2.35,2.67 3.22,4.15 0.78,1.34 -4.06,2.22 -3.65,3.7 0.41,1.22 6.09,3 6.24,4.27 0.62,5.82 -1.33,11.88 -5.81,16.36 -4.33,4.38 -10.21,6.33 -15.9,5.83 -0.97,-0.07 -3.08,-5.06 -3.08,-5.06l-2.6 3.77c-2.49,-0.99 -4.89,-2.51 -6.88,-4.54 -1.85,-1.82 -3.22,-3.92 -4.25,-6.12 -0.3,-0.69 6.04,-2.48 5.82,-3.16 -0.25,-0.69 -6.98,-0.23 -7.11,-0.92 -0.38,-1.98 -0.5,-3.99 -0.26,-5.98 0.07,-1.09 3.45,-0.3 3.67,-1.33 0.36,-1.33 -2.3,-4.5 -1.68,-5.71 0.94,-1.9 2.2,-3.69 3.81,-5.26z"/>
  <path class="fil14" d="M3616.81 10283.97l-24.86 -29.09 -24.82 55.82c0,0 70.17,-3.28 49.68,-26.73z"/>
  <path class="fil15" d="M3631.19 10310.7c0,17.66 -14.38,32.02 -32.05,32.02 -2.86,0 -5.59,-0.38 -8.26,-1.11 -2.38,-0.61 2.08,-7.04 -0.08,-8.18 -1.76,-0.99 -10.22,3.43 -11.79,2.13 -7.25,-5.82 -11.88,-14.82 -11.88,-24.86 0,-9.79 4.39,-18.58 11.34,-24.44 1.13,-1 9.2,2.2 9.2,2.2l-1.38 -7.08c3.93,-1.75 8.27,-2.7 12.85,-2.7 4.12,0 8.03,0.76 11.63,2.16 1.1,0.43 -3.98,9.53 -2.92,10.06 0.93,0.54 8.07,-7.54 8.96,-6.93 2.66,1.75 5.06,3.92 7.09,6.4 1.11,1.33 -3.56,4.1 -2.7,5.63 1.06,1.87 7.6,2.44 8.34,4.54 1.05,3.15 1.65,6.62 1.65,10.16z"/>
  <path class="fil14" d="M3584.89 10296.45c7.87,-7.87 20.65,-7.87 28.52,0 1.29,1.26 2.35,2.67 3.21,4.15 0.78,1.34 -4.08,2.22 -3.6,3.7 0.34,1.22 6.02,3 6.18,4.27 0.63,5.82 -1.33,11.88 -5.79,16.36 -4.35,4.38 -10.22,6.33 -15.9,5.83 -0.99,-0.07 -3.1,-5.06 -3.1,-5.06l-2.56 3.77c-2.54,-0.99 -4.89,-2.51 -6.96,-4.54 -1.81,-1.82 -3.2,-3.92 -4.19,-6.12 -0.28,-0.69 6,-2.48 5.79,-3.16 -0.2,-0.69 -6.96,-0.23 -7.08,-0.92 -0.4,-1.98 -0.51,-3.99 -0.32,-5.98 0.12,-1.09 3.44,-0.3 3.72,-1.33 0.35,-1.33 -2.27,-4.5 -1.68,-5.71 0.94,-1.9 2.19,-3.69 3.76,-5.26z"/>
  <path class="fil11" d="M3439.75 10212.46l117.67 31.61 -198.21 38.1c4.07,-80.48 80.54,-69.71 80.54,-69.71z"/>
  <path class="fil12" d="M3427.37 10239.57l80.5 15.31 -143.69 27.29c3.21,-49.18 63.19,-42.6 63.19,-42.6z"/>
  <path class="fil12" d="M3482.65 10243.98c7.08,-0.52 -67.31,-21.19 -67.31,-21.19 0,0 49.09,22.69 67.31,21.19z"/>
  <path class="fil13" d="M3470.22 10244.07l113.65 3.01 -169.3 66.66c2.85,-80.49 55.65,-69.67 55.65,-69.67z"/>
  <path class="fil14" d="M3461.64 10271.17l91.8 -20.33 -135.44 62.9c2.2,-49.15 43.64,-42.57 43.64,-42.57z"/>
  <path class="fil14" d="M3553.44 10247.08c-13.14,-3.58 -108.91,8.23 -108.91,8.23 0,0 91.58,-2.33 108.91,-8.23z"/>
  <path class="fil14" d="M3490.41 10278.68l105.45 -23.8 -85.33 80.68c0,0 -40.58,-33.43 -20.12,-56.88z"/>
  <path class="fil15" d="M3458.36 10310.7c0,17.66 14.37,32.02 32.05,32.02 2.85,0 5.63,-0.38 8.25,-1.11 2.44,-0.61 -2.07,-7.04 0.09,-8.18 1.8,-0.99 10.26,3.43 11.78,2.13 7.29,-5.82 11.88,-14.82 11.88,-24.86 0,-9.79 -4.39,-18.58 -11.33,-24.44 -1.13,-1 -9.17,2.2 -9.17,2.2l1.37 -7.08c-3.95,-1.75 -8.29,-2.7 -12.87,-2.7 -4.12,0 -8.01,0.76 -11.65,2.16 -1.05,0.43 4.05,9.53 2.99,10.06 -0.98,0.54 -8.12,-7.54 -9.02,-6.93 -2.66,1.75 -5.05,3.92 -7.09,6.4 -1.1,1.33 3.65,4.1 2.71,5.63 -1.06,1.87 -7.64,2.44 -8.32,4.54 -1.08,3.15 -1.67,6.62 -1.67,10.16z"/>
  <path class="fil14" d="M3504.65 10296.45c-7.87,-7.87 -20.64,-7.87 -28.5,0 -1.25,1.26 -2.31,2.67 -3.17,4.15 -0.79,1.34 4.07,2.22 3.64,3.7 -0.4,1.22 -6.11,3 -6.28,4.27 -0.57,5.82 1.34,11.88 5.81,16.36 4.38,4.38 10.21,6.33 15.89,5.83 0.99,-0.07 3.14,-5.06 3.14,-5.06l2.54 3.77c2.52,-0.99 4.89,-2.51 6.93,-4.54 1.82,-1.82 3.22,-3.92 4.2,-6.12 0.28,-0.69 -6,-2.48 -5.76,-3.16 0.19,-0.69 6.91,-0.23 7.05,-0.92 0.39,-1.98 0.5,-3.99 0.32,-5.98 -0.13,-1.09 -3.46,-0.3 -3.72,-1.33 -0.36,-1.33 2.35,-4.5 1.72,-5.71 -0.94,-1.9 -2.23,-3.69 -3.81,-5.26z"/>
  <path class="fil1" d="M5476.88 3607.41c-201.57,-81.45 -339.17,343.25 -339.17,343.25 0,0 523.37,-249.87 339.17,-343.25z"/>
  <path class="fil1" d="M5395.44 3675.2c-106.27,-42.91 -257.73,275.46 -257.73,275.46 0,0 354.82,-226.22 257.73,-275.46z"/>
  <path class="fil1" d="M4725.4 3607.41c201.61,-81.45 339.25,343.25 339.25,343.25 0,0 -523.34,-249.87 -339.25,-343.25z"/>
  <path class="fil1" d="M4806.88 3675.2c106.27,-42.91 257.77,275.46 257.77,275.46 0,0 -354.86,-226.22 -257.77,-275.46z"/>
  <path class="fil1" d="M5192.96 3935.3c0,58.32 -47.33,105.64 -105.62,105.64 -58.33,0 -105.66,-47.32 -105.66,-105.64 0,-58.36 47.33,-105.69 105.66,-105.69 58.29,0 105.62,47.33 105.62,105.69z"/>
  <path class="fil1" d="M4534.5 4679.46c12.79,3.26 -176.86,-1065.42 583.91,-723.29 -401.31,207.79 -571.12,726.55 -571.12,726.55l-12.79 -3.26z"/>
  <path class="fil1" d="M5629.37 4679.46c-12.83,3.26 216.84,-1065.42 -543.9,-723.29 401.35,207.79 531.07,726.55 531.07,726.55l12.83 -3.26z"/>
  <path class="fil16" d="M4567.7 4679.46c0,0 90.73,591.95 -198.81,663.4 47.94,58.14 394.93,218.26 718.45,30.88l-519.64 -694.28z"/>
  <path class="fil16" d="M5555.85 4679.46c0,0 -90.7,591.95 198.82,663.4 -47.93,58.14 -394.91,218.26 -718.39,30.88l519.57 -694.28z"/>
  <polygon class="fil17" points="4596.9,10263.37 4261.98,10334.53 4261.98,10414.57 4763.32,10414.57 4763.32,10263.37 "/>
  <path class="fil18" d="M4414.64 7936.37l88.92 1089.28 93.34 1226.15c0,0 74.55,100.78 167.91,0l106.72 -729.22 -40.01 -496.93 232.29 -1089.28 -649.17 0z"/>
  <path class="fil19" d="M4774.41 10186.15l96.52 -659.44 0.6 7.49 -95.42 651.87c-0.57,0.04 -1.13,0.04 -1.7,0.08z"/>
  <path class="fil20" d="M4763.32 10264.59l0 -1.22 -10.12 0c3.84,-3.5 7.69,-7.39 11.61,-11.57l9.6 -65.65c0.57,-0.04 1.13,-0.04 1.7,-0.08l-11.3 77.3c0,0 -0.53,0.45 -1.49,1.22z"/>
  <path class="fil21" d="M4692.84 10304.98l-0.52 -9.36c18.61,-2.78 39.13,-12.22 60.88,-32.25l10.12 0 0 1.22c-8.22,6.51 -48.51,37.65 -70.48,40.39z"/>
  <path class="fil22" d="M4692.32 10295.62l-74.21 -1262.82 1.83 -16.49c64.26,7.92 135.54,14.63 212.11,18.51l-0.53 2.4 39.41 489.49 -96.52 659.44 -9.6 65.65c-3.92,4.18 -7.77,8.07 -11.61,11.57 -21.75,20.03 -42.27,29.47 -60.88,32.25z"/>
  <polygon class="fil17" points="5246.11,10263.37 5129.6,10263.37 5045.11,10334.53 5045.11,10414.57 5334.21,10414.57 5334.21,10334.53 "/>
  <path class="fil18" d="M5433.63 7948.02l-31.15 1086.99 -151.24 1228.36c0,0 -77.09,62.55 -117.15,-5.18l-106.72 -729.24 40.02 -496.95 -195.63 -1083.98 561.87 0z"/>
  <path class="fil21" d="M5301.62 10338.41l-223.91 0c0,-13.78 69.67,-25.01 155.64,-25.01 85.94,0 68.27,11.23 68.27,25.01z"/>
  <path class="fil23" d="M4498.63 5781.34l95.6 -47.21 -104.66 20.29c1.54,7.9 4.26,17.15 9.06,26.92l95.6 -47.21 -104.66 20.29 104.59 -20.24 -106.53 0c0.01,5.59 0.41,12.27 1.94,20.24l104.59 -20.24 -106.53 0 106.33 0 -103.37 -24.93c-1.37,5.87 -2.9,13.54 -2.96,24.93l106.33 0 -103.37 -24.93 102.85 24.76 -98.74 -37.96c-1.25,3.31 -2.69,7.38 -4.11,13.2l102.85 24.76 -98.74 -37.96 97.21 37.38 -91.44 -49.88c-1.42,2.67 -3.26,6.04 -5.77,12.5l97.21 37.38 -91.44 -49.88 87.18 47.56 -83.99 -52.97c-0.78,1.22 -1.78,2.85 -3.19,5.41l87.18 47.56 -83.99 -52.97 70.62 44.59 -67.97 -48.54c-0.41,0.58 -1.12,1.56 -2.65,3.95l70.62 44.59 -67.97 -48.54 36.72 26.16 -36.35 -26.69 -0.37 0.53 36.72 26.16 -36.35 -26.69 14.64 10.76 -14.61 -10.82 -0.03 0.06 14.64 10.76 -14.61 -10.82 -0.01 0c-0.13,0.24 -0.96,1.29 -2.12,2.8 -2.29,3.02 -5.87,7.61 -10.19,13.43 -8.15,10.92 -19.03,26.1 -31.68,45.35 -22.16,33.83 -49.8,80.45 -79.48,141.5 -44.53,91.54 -93.66,215.6 -136.59,378.13 -42.95,162.55 -79.71,363.59 -99.79,609.39l-0.17 2.01 -38.66 889.34 213.21 9.25 38.59 -887.28 -106.61 -4.63 106.35 8.68c16.92,-207.12 46.08,-378.5 79.93,-518.86 50.82,-210.56 112.1,-351.26 159.16,-438.62 23.53,-43.69 43.48,-74.04 57.27,-93.52 3.42,-4.87 6.51,-9.06 9.21,-12.67 2.02,-2.73 3.85,-5.12 5.48,-7.32 1.26,-1.57 2.4,-3.09 3.5,-4.54 0.84,-1.11 1.68,-2.15 2.56,-3.37 0.68,-0.87 1.4,-1.81 2.24,-2.96 0.61,-0.88 1.34,-1.87 2.21,-3.14 0.69,-0.93 1.45,-2.04 2.4,-3.55 0.72,-1.11 1.56,-2.44 2.55,-4.19 0.76,-1.28 1.63,-2.78 2.66,-4.77 1.57,-3.02 3.51,-6.79 5.95,-13.42 1.18,-3.38 2.54,-7.5 3.81,-13.2l-104.14 -23.2 0 0 76.38 74.47 -67.32 -65.63 67.01 65.93 0.31 -0.3 -67.32 -65.63 67.01 65.93c19.72,-20.06 30.65,-46.75 30.65,-74.83 -0.04,-5.63 -0.42,-12.38 -1.98,-20.35 -1.52,-7.9 -4.26,-17.2 -9.06,-26.97l-191.4 94.48z"/>
  <path class="fil24" d="M4143.49 6337.31c17.79,-702.54 561.39,-918.23 561.39,-918.23l110 509.17c-244.71,80.04 -293.45,409.06 -293.45,409.06 0,0 -355.69,0 -377.94,0z"/>
  <path class="fil17" d="M5735.21 5734.13c0,0 -447.1,634.71 -219.04,1578.92 -309.39,254.64 -1101.53,-657.44 -1101.53,-1217.33 0,-559.9 294.96,-640.24 434.23,-687.69l726.09 0c112.66,39.43 160.25,161.74 160.25,326.1z"/>
  <path class="fil24" d="M4713.9 5460.88l0 0c0.04,0 0.04,0 0.04,0 0,0 -0.04,0 -0.04,0z"/>
  <path class="fil25" d="M4713.94 5460.88c0,0 0,0 -0.04,0l-2.62 -12.09c19.76,-15.3 40.74,-28.95 62.86,-40.76l74.73 0c-36.85,12.57 -84.63,27.39 -134.93,52.85z"/>
  <path class="fil26" d="M4667.11 5487.57c13.97,-13.9 28.71,-26.81 44.17,-38.78l2.62 12.09 0 0c-15.41,7.85 -31.1,16.63 -46.79,26.69z"/>
  <path class="fil21" d="M4480.92 5926.55c11.07,-163.18 75.16,-328.99 186.19,-438.98 15.69,-10.06 31.38,-18.84 46.79,-26.69 0,0 0.04,0 0.04,0 50.3,-25.46 98.08,-40.28 134.93,-52.85l38.54 0c-199.02,74.3 -238.84,215.17 -258.26,473.59 -56.54,9.24 -107.63,24.05 -148.23,44.93z"/>
  <path class="fil21" d="M5231.49 6063.4l-1.22 -1.61c1.87,-27.66 4.19,-55.8 6.93,-84.63 -18.62,-14.76 -42.15,-28.21 -69.41,-40.24 11.54,-213.26 114.03,-433.13 293.86,-528.89l113.31 0c-222.32,83.02 -243.83,306.28 -343.47,655.37z"/>
  <path class="fil1" d="M5574.96 8014.58c-108.09,585.96 -68.04,967.32 -68.04,967.32 -630.55,143.16 -1229.57,-30.16 -1229.57,-30.16l172.24 -1942.95 -34.95 -1031.63c131.28,-158.27 661.43,-127.81 822.56,0 -89.21,933.13 291.95,1246.91 291.95,1246.91 0,0 153.87,425.22 45.81,790.51z"/>
  <path class="fil27" d="M4479.2 6425.13c21.46,0 83.93,316.92 83.93,695.3 0,378.39 -70.62,685.15 -92.11,685.15 -21.48,0 14.32,-306.76 14.32,-685.15 0,-378.38 -27.64,-695.3 -6.14,-695.3z"/>
  <path class="fil1" d="M4709.6 5408.03c-191.21,101.8 -294.96,343.83 -294.96,569.13l143.77 0c22.27,-360.18 121.53,-486.11 343.85,-569.13l-192.66 0z"/>
  <path class="fil1" d="M5382.26 5408.03c-268.08,83.02 -294.92,343.83 -294.92,569.13l149.86 0c-8.91,-334.95 92.68,-469.37 337.76,-569.13l-192.7 0z"/>
  <path class="fil28" d="M4524.21 6379.63c0,-141.81 64.73,-164.07 160.1,-164.08 -95.37,0.01 -160.1,22.27 -160.1,164.08zm306.89 -159.44c-33.7,0 -66.13,-1.87 -96.45,-3.24 30.32,1.37 62.75,3.24 96.45,3.24zm96.44 -3.24c17.48,-0.78 34.26,-1.4 50.22,-1.4 -15.96,0 -32.74,0.62 -50.22,1.4zm50.34 -1.4c-0.04,0 -0.04,0 -0.08,0l0 0c0.04,0 0.04,0 0.08,0zm-293.45 0l-0.04 0 0 0 0.04 0z"/>
  <path class="fil23" d="M5639.88 5782.08c1.07,2.04 1.52,2.92 1.94,3.61 0.72,1.34 0.99,1.81 1.25,2.27 0.43,0.75 0.61,1.05 0.84,1.45 0.42,0.7 0.84,1.45 1.45,2.44 2.25,3.9 6.89,12.04 13.56,24.89 23.18,44.88 70.17,146.39 111.4,303.7 41.24,157.31 76.76,370.39 76.76,638.88 0,82.51 -3.35,170.26 -10.93,263.22l106.35 8.72 -11.16 -106.15 -941.7 99.14 22.35 212.27 1029.65 -108.4 7.23 -88.19c8.04,-98.75 11.66,-192.31 11.66,-280.61 0,-348.48 -56.09,-615 -113.58,-796.16 -28.71,-90.61 -57.76,-159.85 -80.26,-207.53 -11.24,-23.83 -20.83,-42.26 -27.88,-55.16 -3.53,-6.46 -6.42,-11.58 -8.52,-15.12 -1.03,-1.8 -1.87,-3.25 -2.4,-4.13l-0.27 -0.47 -0.11 -0.17 -57.57 33.84 57.91 -33.25c-0.27,-0.47 -0.3,-0.59 -0.34,-0.59l-57.57 33.84 57.91 -33.25 -84.75 48.65 85.44 -47.44c-0.34,-0.64 -0.54,-0.98 -0.69,-1.21l-84.75 48.65 85.44 -47.44 -90.4 50.18 91.08 -48.9c-0.27,-0.57 -0.49,-0.99 -0.68,-1.28l-90.4 50.18 91.08 -48.9 -92.48 49.65 93.01 -48.66c-0.18,-0.4 -0.38,-0.7 -0.53,-0.99l-92.48 49.65 93.01 -48.66 -4.03 -7.03 -0.04 -0.12 -180.97 113.19 90.5 -56.56 -95.33 47.95z"/>
  <path class="fil29" d="M4864.11 6884.42c0,0 219.77,-27.83 216.38,113.18 -3.35,141.1 -135.59,30.69 -135.59,30.69l-80.79 -143.87z"/>
  <path class="fil30" d="M5005.82 6993.79c-1.06,-12.5 30.99,-54.44 30.99,-54.44 0,0 -74.13,-57.14 -172.7,-54.93 65.64,23.44 120.65,91.95 141.71,109.37z"/>
  <polygon class="fil29" points="5374.99,7307.3 5002.16,7270.56 5002.16,6988.46 5374.99,6939.35 "/>
  <path class="fil29" d="M5002.16 6988.46c0,0 -36.43,-118.32 -180.55,-115.51 -144.11,2.73 -140.91,327.32 -99.03,376.21 41.81,48.96 137.07,104.13 279.58,21.4 142.45,-82.82 0,-282.1 0,-282.1z"/>
  <path class="fil24" d="M6162.03 6337.31c-17.77,-702.54 -561.37,-918.23 -561.37,-918.23l-110 509.17c244.71,80.04 293.45,409.06 293.45,409.06 0,0 355.73,0 377.92,0z"/>
  <path class="fil1" d="M4770.33 5408.03c21.51,-0.12 -247.3,151.92 -246.12,409.06l-42.83 477.21c-45.27,0.19 -38.72,38.33 -41.07,-455.18 -1.22,-257.14 308.51,-430.97 330.02,-431.09z"/>
  <path class="fil1" d="M5446.19 5408.03c21.48,-0.12 -247.33,151.92 -246.12,409.06l-42.83 330.22c-45.23,0.21 -41.08,-99.03 -41.08,-308.19 0,-257.14 308.52,-430.97 330.03,-431.09z"/>
  <path class="fil23" d="M5297.02 5419.08c-99.95,81.74 -60.93,121.91 -294.86,121.91 -175.02,0 -193.07,-40.17 -93.16,-121.91l388.02 0z"/>
  <path class="fil23" d="M4728.26 4769.98c0,71.63 -48.4,129.77 -108.1,129.77 -59.7,0 -108.05,-58.14 -108.05,-129.77 0,-71.63 48.35,-129.65 108.05,-129.65 59.7,0 108.1,58.02 108.1,129.65z"/>
  <path class="fil23" d="M5683.02 4769.98c0,71.63 -48.36,129.77 -108.06,129.77 -59.7,0 -108.09,-58.14 -108.09,-129.77 0,-71.63 48.39,-129.65 108.09,-129.65 59.7,0 108.06,58.02 108.06,129.65z"/>
  <path class="fil23" d="M5189.87 5475.12l-230.46 -15.11 -0.19 0c0.57,-16.16 0.3,-153.19 -0.16,-273.82l231.2 -0.93c1.1,271.67 0.07,284.4 -0.39,289.86z"/>
  <path class="fil31" d="M5114.98 5398.79c-42.9,0 -109.08,-13.72 -139.7,-91.16 36.14,14.6 73.64,22.56 112.06,22.56 34.57,0 68.38,-6.45 101.13,-18.37 -4.12,44.18 -13.45,82.9 -33.55,82.9 0,0 -16.48,4.07 -39.94,4.07z"/>
  <path class="fil23" d="M5624.23 4506.74c0,350.1 -240.37,823.45 -536.89,823.45 -296.53,0 -536.93,-473.35 -536.93,-823.45 0,-350.17 240.4,-444.46 536.93,-444.46 296.52,0 536.89,94.29 536.89,444.46z"/>
  <path class="fil16" d="M5468.39 4425.75c43.94,157.55 125.99,231.97 58.98,507.08 0.95,10.52 89.74,-204.71 113.42,-507.08l-172.4 0z"/>
  <path class="fil16" d="M4647.42 4933.23c-1.86,20 -560.97,-1070.71 882.16,-994.08 -85.03,71.1 45.38,306.02 138.36,349.11 67.27,154.64 -211.96,452.83 -580.6,-21.34 0,0 -12.3,216.33 -428.87,313.07 -35.18,81.74 -12.53,208.83 -11.05,353.24z"/>
  <path class="fil17" d="M4940.75 5091.07c0,63.2 65.64,114.42 146.59,114.42 80.9,0 146.51,-51.22 146.51,-114.42l-293.1 0z"/>
  <polygon class="fil31" points="5064.65,5037.35 5203.39,5008.76 5160.29,4836.31 5176.24,4769.98 5182.22,4843.18 5233.85,5026.31 "/>
  <path class="fil16" d="M5160.29 4621.62l99.49 -9.31c0,0 60.16,34.01 168.48,34.01 -49.27,21.81 -267.97,-24.7 -267.97,-24.7z"/>
  <path class="fil16" d="M5036.28 4621.62l-99.53 -9.31c0,0 -60.16,34.01 -168.48,34.01 49.31,21.81 268.01,-24.7 268.01,-24.7z"/>
  <path class="fil16" d="M5288.11 4778.18c0,45.17 -12.68,81.86 -28.33,81.86 -15.65,0 -28.29,-36.69 -28.29,-81.86 0,-45.29 12.64,-81.98 28.29,-81.98 15.65,0 28.33,36.69 28.33,81.98z"/>
  <path class="fil16" d="M4944.06 4778.18c0,45.17 -12.67,81.86 -28.33,81.86 -15.6,0 -28.32,-36.69 -28.32,-81.86 0,-45.29 12.72,-81.98 28.32,-81.98 15.66,0 28.33,36.69 28.33,81.98z"/>
  <path class="fil16" d="M5264.19 4697.31l0 48.02c0,0 36.55,-1.63 42.95,-38.31 -9.59,14.36 -42.95,-9.71 -42.95,-9.71z"/>
  <path class="fil16" d="M4919.35 4697.31l0 48.02c0,0 36.55,-1.63 42.92,-38.31 -9.56,14.36 -42.92,-9.71 -42.92,-9.71z"/>
  <path class="fil29" d="M4421.38 7953.39c0,0 26.75,-195.98 -113.61,-210.1 -140.38,-14.12 -6.92,101.4 -6.92,101.4 0,0 46.77,162.61 87.19,168.01 16.93,2.25 33.34,-59.31 33.34,-59.31z"/>
  <polygon class="fil29" points="4036.9,7412.72 4027.3,7787.31 4307.19,7822.18 4401.99,7458.22 "/>
  <path class="fil29" d="M4307.19 7822.18c0,0 28.87,154.85 8.31,297.51 -20.57,142.67 -242.29,55.25 -285.65,7.62 -43.4,-47.52 -102.36,-208.91 -2.55,-340 99.74,-131.14 279.89,34.87 279.89,34.87z"/>
  <polygon class="fil11" points="4877.62,10607.45 3620.38,10607.45 3495.73,11045.16 3904.62,11045.16 3934.11,11002.89 3959.64,11045.16 4483.83,11045.16 4545.46,11002.89 4543.14,11045.16 5002.28,11045.16 "/>
  <polygon class="fil12" points="3656.69,10607.45 3532.04,11045.16 3556.49,11045.16 3681.16,10607.45 "/>
  <polygon class="fil12" points="3717.65,10607.45 3593,11045.16 3617.43,11045.16 3742.13,10607.45 "/>
  <polygon class="fil12" points="3778.59,10607.45 3653.9,11045.16 3678.38,11045.16 3803.03,10607.45 "/>
  <polygon class="fil12" points="3839.51,10607.45 3714.87,11045.16 3739.35,11045.16 3863.99,10607.45 "/>
  <polygon class="fil12" points="3900.47,10607.45 3775.82,11045.16 3800.25,11045.16 3924.95,10607.45 "/>
  <polygon class="fil12" points="3961.42,10607.45 3836.76,11045.16 3861.22,11045.16 3985.89,10607.45 "/>
  <polygon class="fil12" points="4022.36,10607.45 3897.69,11045.16 3904.62,11045.16 3934.11,11002.89 4046.81,10607.45 "/>
  <polygon class="fil12" points="4083.28,10607.45 3958.64,11045.16 3983.11,11045.16 4107.77,10607.45 "/>
  <polygon class="fil12" points="4833.69,10607.45 4958.31,11045.16 4933.82,11045.16 4809.2,10607.45 "/>
  <polygon class="fil12" points="4772.72,10607.45 4897.38,11045.16 4872.94,11045.16 4748.25,10607.45 "/>
  <polygon class="fil12" points="4711.77,10607.45 4836.42,11045.16 4811.98,11045.16 4687.33,10607.45 "/>
  <polygon class="fil12" points="4650.85,10607.45 4775.51,11045.16 4751.02,11045.16 4626.36,10607.45 "/>
  <polygon class="fil12" points="4589.9,10607.45 4714.55,11045.16 4690.06,11045.16 4565.42,10607.45 "/>
  <polygon class="fil12" points="4528.93,10607.45 4653.59,11045.16 4629.15,11045.16 4504.47,10607.45 "/>
  <polygon class="fil12" points="4468,10607.45 4592.67,11045.16 4570.06,11045.16 4443.55,10607.45 "/>
  <polygon class="fil12" points="4345.2,10607.45 4464.55,11045.16 4441.99,11045.16 4320.74,10607.45 "/>
  <polygon class="fil12" points="4315.34,10607.45 4412.09,11045.16 4389.53,11045.16 4290.85,10607.45 "/>
  <polygon class="fil12" points="4131.19,10607.45 4011.86,11045.16 4034.43,11045.16 4155.67,10607.45 "/>
  <polygon class="fil12" points="4179.17,10607.45 4082.43,11045.16 4105.03,11045.16 4203.66,10607.45 "/>
  <polygon class="fil12" points="4213.21,10607.45 4165.81,11045.16 4188.37,11045.16 4237.69,10607.45 "/>
  <polygon class="fil12" points="4288.31,10607.45 4335.75,11045.16 4313.15,11045.16 4263.83,10607.45 "/>
  <polygon class="fil12" points="4239.82,10607.45 4237.69,11045.16 4260.25,11045.16 4264.26,10607.45 "/>
  <polygon class="fil12" points="4407.04,10607.45 4523.91,11017.66 4503.44,11031.71 4382.6,10607.45 "/>
  <path class="fil32" d="M5002.28 11045.16l-5.75 -20.14c4.53,12.71 5.75,20.14 5.75,20.14z"/>
  <path class="fil33" d="M5002.28 11045.16l0 0 -5.75 -20.14 0 0 5.75 20.14zm-5.75 -20.14c-8.64,-24.45 -29.47,-68.43 -77.25,-116.89l-85.59 -300.68 43.93 0 118.91 417.57zm-110.41 -147.43c-13.79,-11.5 -29.14,-23.08 -46.31,-34.58l-67.09 -235.56 36.48 0 76.92 270.14zm-76.08 -53.27c-13.44,-7.88 -27.83,-15.72 -43.17,-23.33l-55.1 -193.54 36.48 0 61.79 216.87zm-71.39 -36.69c-13.17,-5.91 -26.91,-11.66 -41.43,-17.25l-46.37 -162.93 36.48 0 51.32 180.18zm-68.76 -27.39c-12.91,-4.53 -26.31,-8.95 -40.25,-13.21l-39.74 -139.58 36.46 0 43.53 152.79zm-66.93 -21.01c-12.72,-3.58 -25.86,-7.01 -39.41,-10.29l-34.62 -121.49 36.49 0 37.54 131.78zm-65.61 -16.37c-12.6,-2.82 -25.51,-5.49 -38.76,-8.04l-30.59 -107.37 36.47 0 32.88 115.41zm-64.1 -12.68c-12.61,-2.21 -25.53,-4.3 -38.74,-6.28l-27.47 -96.45 36.51 0 29.7 102.73z"/>
  <path class="fil34" d="M4919.28 10908.13c-9.86,-10.02 -20.87,-20.26 -33.16,-30.54l-76.92 -270.14 24.49 0 85.59 300.68z"/>
  <path class="fil34" d="M4839.81 10843.01c-9.4,-6.27 -19.3,-12.49 -29.77,-18.69l-61.79 -216.87 24.47 0 67.09 235.56z"/>
  <path class="fil34" d="M4766.87 10800.99c-9.07,-4.53 -18.48,-8.99 -28.22,-13.36l-51.32 -180.18 24.44 0 55.1 193.54z"/>
  <path class="fil34" d="M4697.22 10770.38c-8.83,-3.44 -17.97,-6.82 -27.33,-10.14l-43.53 -152.79 24.49 0 46.37 162.93z"/>
  <path class="fil34" d="M4629.64 10747.03c-8.71,-2.66 -17.59,-5.26 -26.68,-7.8l-37.54 -131.78 24.48 0 39.74 139.58z"/>
  <path class="fil34" d="M4563.55 10728.94c-8.57,-2.09 -17.29,-4.14 -26.2,-6.08l-32.88 -115.41 24.46 0 34.62 121.49z"/>
  <path class="fil34" d="M4498.59 10714.82c-8.31,-1.6 -16.77,-3.16 -25.34,-4.64l-29.7 -102.73 24.45 0 30.59 107.37z"/>
  <path class="fil32" d="M3572.98 10773.84l13.97 -49c0,0 0,0 0.01,0l-13.96 49c-0.01,0 -0.01,0 -0.02,0z"/>
  <polygon class="fil35" points="3615.47,10624.66 3615.47,10624.66 3617.98,10615.86 3617.99,10615.86 "/>
  <path class="fil36" d="M3586.95 10724.84l1.73 -6.13c0.01,0 0.01,0 0.01,0l-1.73 6.13c-0.01,0 -0.01,0 -0.01,0zm11.9 -41.81l0.37 -1.29c0,0 0,0 0,0l-0.36 1.29c0,0 0,0 -0.01,0z"/>
  <path class="fil37" d="M3588.69 10718.71c0,0 0,0 -0.01,0l10.17 -35.68c0.01,0 0.01,0 0.01,0l-10.17 35.68z"/>
  <polygon class="fil37" points="3617.99,10615.86 3617.98,10615.86 3619.96,10608.9 3619.96,10608.9 "/>
  <path class="fil37" d="M3615.21 10625.61l0.26 -0.95 0 0 -0.26 0.95c0,0 0,0 0,0z"/>
  <path class="fil36" d="M3599.22 10681.74l3.33 -11.69c0,0 0,0 0,0l-3.33 11.69c0,0 0,0 0,0zm12.85 -45.13l0 0 3.14 -11c0,0 0,0 0,0l-3.14 11z"/>
  <path class="fil37" d="M3602.55 10670.05l9.52 -33.44 0 0 -9.52 33.44c0,0 0,0 0,0z"/>
  <polygon class="fil36" points="3619.96,10608.9 3620.38,10607.45 "/>
  <path class="fil33" d="M3573 10773.84l13.96 -49 1.73 -6.13 10.17 -35.68 0.36 -1.29 3.33 -11.69 9.52 -33.44 3.14 -11 0.26 -0.95 2.52 -8.8 1.97 -6.96 0.42 -1.45 36.31 0 -40.7 142.89c-14.89,7.09 -29.23,14.89 -42.99,23.5zm70.92 -35.64l37.24 -130.75 36.49 0 -33.17 116.47c-13.91,4.31 -27.42,9.03 -40.56,14.28zm67.19 -21.85l31.02 -108.9 36.46 0 -28.44 99.84c-13.29,2.69 -26.32,5.71 -39.04,9.06zm64.87 -13.9l27.05 -95 36.48 0 -25.41 89.21c-12.92,1.71 -25.65,3.65 -38.12,5.79zm63.49 -8.84l24.52 -86.16 36.48 0 -23.51 82.55c-12.68,1.06 -25.19,2.24 -37.49,3.61zm62.5 -5.48l22.98 -80.68 36.47 0 -22.38 78.55c-12.51,0.61 -24.88,1.29 -37.07,2.13zm61.85 -3.19l22.07 -77.49 36.47 0 -21.74 76.34c-12.4,0.31 -24.67,0.69 -36.8,1.15zm61.38 -1.69l21.61 -75.8 36.47 0 -21.44 75.31c-12.34,0.12 -24.55,0.31 -36.64,0.49zm61.17 -0.68l21.4 -75.12 23.42 0 -20.45 75.01c-8.17,0.04 -16.29,0.08 -24.37,0.11z"/>
  <path class="fil34" d="M3615.99 10750.34l40.7 -142.89 24.47 0 -37.24 130.75c-9.51,3.77 -18.83,7.84 -27.93,12.14z"/>
  <path class="fil34" d="M3684.48 10723.92l33.17 -116.47 24.48 0 -31.02 108.9c-9.02,2.36 -17.9,4.86 -26.63,7.57z"/>
  <path class="fil34" d="M3750.15 10707.29l28.44 -99.84 24.44 0 -27.05 95c-8.72,1.49 -17.32,3.12 -25.83,4.84z"/>
  <path class="fil34" d="M3814.1 10696.66l25.41 -89.21 24.48 0 -24.52 86.16c-8.56,0.92 -17,1.94 -25.37,3.05z"/>
  <path class="fil34" d="M3876.96 10690l23.51 -82.55 24.48 0 -22.98 80.68c-8.42,0.58 -16.75,1.19 -25.01,1.87z"/>
  <path class="fil34" d="M3939.04 10686l22.38 -78.55 24.47 0 -22.07 77.49c-8.33,0.29 -16.56,0.68 -24.78,1.06z"/>
  <path class="fil34" d="M4000.62 10683.79l21.74 -76.34 24.45 0 -21.61 75.8c-8.24,0.16 -16.45,0.35 -24.58,0.54z"/>
  <path class="fil34" d="M4061.84 10682.76l21.44 -75.31 24.49 0 -21.4 75.12c-8.24,0.04 -16.39,0.11 -24.53,0.19z"/>
  <path class="fil33" d="M4239.44 10685.12c-3.46,-0.15 -6.95,-0.3 -10.44,-0.45l8.69 -77.22 2.13 0 -0.38 77.67zm-34.48 -1.44c-6.08,-0.19 -12.18,-0.39 -18.34,-0.58l17.04 -75.65 9.55 0 -8.25 76.23zm-42.39 -1.11c-3.07,-0.07 -6.12,-0.11 -9.21,-0.15 -6.18,0 -12.32,0 -18.46,0l20.77 -74.97 23.5 0 -16.6 75.12z"/>
  <path class="fil34" d="M4110.74 10682.46l20.45 -75.01 24.48 0 -20.77 74.97c-8.08,0 -16.16,0.04 -24.16,0.04z"/>
  <path class="fil34" d="M4186.62 10683.1c-7.95,-0.19 -15.95,-0.37 -24.05,-0.53l16.6 -75.12 24.49 0 -17.04 75.65z"/>
  <path class="fil34" d="M4229 10684.67c-7.9,-0.39 -15.98,-0.69 -24.04,-0.99l8.25 -76.23 24.48 0 -8.69 77.22z"/>
  <path class="fil33" d="M4409.05 10700.31c-13.03,-1.75 -26.27,-3.38 -39.87,-4.91l-23.98 -87.95 37.4 0 26.45 92.86zm-64.66 -7.5c-3.42,-0.34 -6.94,-0.68 -10.39,-0.98l-18.66 -84.38 5.4 0 23.65 85.36z"/>
  <path class="fil34" d="M4369.18 10695.4c-8.15,-0.91 -16.43,-1.75 -24.79,-2.59l-23.65 -85.36 24.46 0 23.98 87.95z"/>
  <path class="fil33" d="M4309.39 10689.69c-4.05,-0.34 -8.17,-0.68 -12.28,-0.98l-8.8 -81.26 2.54 0 18.54 82.24zm-36.6 -2.67c-3.05,-0.19 -6.17,-0.37 -9.26,-0.56l0.69 -75.47 8.57 76.03z"/>
  <path class="fil34" d="M4334 10691.83c-8.13,-0.77 -16.3,-1.49 -24.61,-2.14l-18.54 -82.24 24.49 0 18.66 84.38z"/>
  <path class="fil34" d="M4297.11 10688.71c-8.03,-0.58 -16.11,-1.15 -24.32,-1.69l-8.57 -76.03 0.04 -3.54 24.05 0 8.8 81.26z"/>
  <path class="fil34" d="M4263.53 10686.46c-7.96,-0.5 -15.94,-0.93 -24.09,-1.34l0.38 -77.67 24.44 0 -0.04 3.54 -0.69 75.47z"/>
  <path class="fil34" d="M4434.51 10703.9c-8.36,-1.22 -16.86,-2.44 -25.46,-3.59l-26.45 -92.86 24.44 0 27.47 96.45z"/>
  <path class="fil38" d="M4248.98 6427.14c-25.57,0 -46.3,-20.73 -46.3,-46.31 0,-25.58 20.73,-46.31 46.3,-46.31 25.59,0 46.3,20.73 46.3,46.31 0,25.58 -20.71,46.31 -46.3,46.31zm0 -120.03c-40.7,0 -73.73,33 -73.73,73.72 0,40.72 33.03,73.72 73.73,73.72 40.74,0 73.73,-33 73.73,-73.72 0,-40.72 -32.99,-73.72 -73.73,-73.72z"/>
  <polygon class="fil8" points="4189.67,10335.48 4308.29,10335.48 4308.29,6428.89 4189.67,6428.89 "/>
  <polygon class="fil9" points="4273.46,10335.48 4308.29,10335.48 4308.29,6428.89 4273.46,6428.89 "/>
  <polygon class="fil10" points="4189.67,10335.48 4226.11,10335.48 4226.11,6428.89 4189.67,6428.89 "/>
  <polygon class="fil27" points="3606.59,10651.88 3606.59,10570.26 3808.9,10488.66 4689.08,10488.66 4891.37,10570.26 4891.37,10651.88 "/>
  <polygon class="fil27" points="3606.59,10651.88 4891.37,10651.88 4891.37,10607.45 3606.59,10607.45 "/>
  <path class="fil1" d="M4670.42 10497.6c0,13.67 -82.97,53.42 -423.31,53.42 -340.38,0 -419.59,-48.7 -419.59,-62.36 0,-13.68 68.04,1.14 408.42,1.14 340.4,0 434.48,-5.86 434.48,7.8z"/>
  <polygon class="fil27" points="4053.99,10556.51 4444.03,10556.51 4444.03,10431.08 4053.99,10431.08 "/>
  <polygon class="fil27" points="4053.99,10556.51 4444.03,10556.51 4444.03,10488.66 4053.99,10488.66 "/>
  <path class="fil1" d="M4361.21 10431.09l-224.46 0c-24.99,0 -45.24,20.29 -45.24,45.27l314.99 0c0,-24.98 -20.26,-45.27 -45.29,-45.27z"/>
  <polygon class="fil1" points="4153.36,10431.09 4344.64,10431.09 4344.64,10328.41 4153.36,10328.41 "/>
  <polygon class="fil39" points="4164.73,6480.24 4333.24,6480.24 4333.24,6428.89 4164.73,6428.89 "/>
  <polygon class="fil27" points="5600.09,10484.78 4757.8,10484.78 4836.92,10427.21 5520.97,10427.21 "/>
  <polygon class="fil27" points="4757.8,10552.62 5600.08,10552.62 5600.08,10484.77 4757.8,10484.77 "/>
  <path class="fil38" d="M5178.95 7553.1c-25.59,0 -46.3,-20.71 -46.3,-46.29 0,-25.59 20.71,-46.31 46.3,-46.31 25.58,0 46.29,20.72 46.29,46.31 0,25.58 -20.71,46.29 -46.29,46.29zm0 -120.04c-40.75,0 -73.71,33.05 -73.71,73.75 0,40.74 32.96,73.71 73.71,73.71 40.7,0 73.71,-32.97 73.71,-73.71 0,-40.7 -33.01,-73.75 -73.71,-73.75z"/>
  <polygon class="fil8" points="5119.62,10325.58 5238.27,10325.58 5238.27,7554.86 5119.62,7554.86 "/>
  <polygon class="fil9" points="5203.39,10325.58 5238.27,10325.58 5238.27,7554.86 5203.39,7554.86 "/>
  <polygon class="fil10" points="5119.62,10325.58 5156.06,10325.58 5156.06,7554.86 5119.62,7554.86 "/>
  <path class="fil1" d="M5291.19 10421.23l-224.53 0c-24.98,0 -45.23,20.21 -45.23,45.23l315.03 0c0,-25.02 -20.29,-45.23 -45.27,-45.23z"/>
  <polygon class="fil1" points="5083.26,10427.21 5274.55,10427.21 5274.55,10318.51 5083.26,10318.51 "/>
  <polygon class="fil39" points="5094.69,7606.18 5263.21,7606.18 5263.21,7554.86 5094.69,7554.86 "/>
  <polygon class="fil27" points="5889.23,11045.16 5614.86,10499.92 4743.03,10499.92 4468.66,11045.16 4801.55,10716.49 5553.03,10716.49 "/>
  <polygon class="fil1" points="5566.16,10713.07 4791.69,10713.07 4743.03,10499.92 5614.86,10499.92 "/>
  <polygon class="fil27" points="5889.23,11045.16 4468.66,11045.16 4791.72,10713.07 5566.16,10713.07 "/>
  <path class="fil40" d="M4822.53 6491.71c140.82,-1.53 298.97,-234.67 70.14,-401.68 227.01,74.26 187.27,449.31 -69.85,449.31l-0.29 -47.63z"/>
  <path class="fil41" d="M4814.4 6075.36c123.23,0 223.13,93.87 223.13,209.66 0,115.79 -99.9,209.66 -223.13,209.66 -123.23,0 -223.13,-93.87 -223.13,-209.66 0,-115.79 99.9,-209.66 223.13,-209.66zm-119.15 107.31l67.12 0c18.64,0.36 23.36,12.48 24.21,22.68l-0.2 109.33c1.75,15.88 11.66,17.82 23.98,17.97l64.6 -0.09c-3.31,13.02 -8.05,21.21 -27.31,26.51 -20.03,5.52 -89.41,10.31 -90.75,-38.96l-0.35 -105.84 -32.51 -0.39 1.12 102.56c12.59,117.8 188.6,91.18 185.25,-0.12 0.64,-36.88 -0.85,-73.94 -0.21,-110.83 4.38,-17.97 16.94,-22.84 29.17,-23.36l0.5 127.79c-1.79,53.4 -48.02,126.69 -140.47,116.41 -56.35,-10.13 -101.64,-50.33 -103.6,-117.3l-0.55 -126.36zm149.58 -0.84l29.86 6.42 -10.7 49.77c-7.81,9.58 -17.48,20.21 -34.24,13.95l15.08 -70.14z"/>
 </g>
</svg>
